solid OpenSCAD_Model
  facet normal -0.994522 -0.104528 0
    outer loop
      vertex -50.6431 -6.25 0
      vertex -51.3 2.9064e-14 0
      vertex -51.3 2.9064e-14 -2
    endloop
  endfacet
  facet normal -0.994522 -0.104528 -2.40436e-17
    outer loop
      vertex -50.179 -10.6659 67
      vertex -51.3 2.9064e-14 67
      vertex -50.6431 -6.25 5
    endloop
  endfacet
  facet normal -0.994522 -0.104528 -0
    outer loop
      vertex -51.3 2.9064e-14 67
      vertex -51.3 2.9064e-14 5
      vertex -50.6431 -6.25 5
    endloop
  endfacet
  facet normal -0.994522 -0.104528 -0
    outer loop
      vertex -50.179 -10.6659 67
      vertex -50.6431 -6.25 5
      vertex -50.179 -10.6659 -2
    endloop
  endfacet
  facet normal -0.994522 -0.104528 -0
    outer loop
      vertex -50.6431 -6.25 5
      vertex -50.6431 -6.25 0
      vertex -50.179 -10.6659 -2
    endloop
  endfacet
  facet normal -0.994522 -0.104528 7.24647e-16
    outer loop
      vertex -50.6431 -6.25 0
      vertex -51.3 2.9064e-14 -2
      vertex -50.179 -10.6659 -2
    endloop
  endfacet
  facet normal 6.62534e-16 1 0
    outer loop
      vertex -5.36231 51.019 67
      vertex 5.36231 51.019 -2
      vertex -5.36231 51.019 -2
    endloop
  endfacet
  facet normal 6.62534e-16 1 0
    outer loop
      vertex -5.36231 51.019 67
      vertex 5.36231 51.019 67
      vertex 5.36231 51.019 -2
    endloop
  endfacet
  facet normal 0.207912 -0.978148 0
    outer loop
      vertex 15.8526 -48.7892 -2
      vertex 5.36231 -51.019 67
      vertex 5.36231 -51.019 -2
    endloop
  endfacet
  facet normal 0.207912 -0.978148 0
    outer loop
      vertex 15.8526 -48.7892 -2
      vertex 15.8526 -48.7892 67
      vertex 5.36231 -51.019 67
    endloop
  endfacet
  facet normal -0.743145 0.669131 0
    outer loop
      vertex -41.5026 30.1534 67
      vertex -34.3264 38.1233 -2
      vertex -41.5026 30.1534 -2
    endloop
  endfacet
  facet normal -0.743145 0.669131 0
    outer loop
      vertex -41.5026 30.1534 67
      vertex -34.3264 38.1233 67
      vertex -34.3264 38.1233 -2
    endloop
  endfacet
  facet normal 0.406737 -0.913545 0
    outer loop
      vertex 25.65 -44.4271 -2
      vertex 15.8526 -48.7892 67
      vertex 15.8526 -48.7892 -2
    endloop
  endfacet
  facet normal 0.406737 -0.913545 0
    outer loop
      vertex 25.65 -44.4271 -2
      vertex 25.65 -44.4271 67
      vertex 15.8526 -48.7892 67
    endloop
  endfacet
  facet normal 0.743145 0.669131 0
    outer loop
      vertex 41.5026 30.1534 67
      vertex 41.5026 30.1534 -2
      vertex 34.3264 38.1233 -2
    endloop
  endfacet
  facet normal 0.743145 0.669131 0
    outer loop
      vertex 34.3264 38.1233 67
      vertex 41.5026 30.1534 67
      vertex 34.3264 38.1233 -2
    endloop
  endfacet
  facet normal -6.62534e-16 -1 0
    outer loop
      vertex 5.36231 -51.019 -2
      vertex -5.36231 -51.019 67
      vertex -5.36231 -51.019 -2
    endloop
  endfacet
  facet normal -6.62534e-16 -1 0
    outer loop
      vertex 5.36231 -51.019 -2
      vertex 5.36231 -51.019 67
      vertex -5.36231 -51.019 67
    endloop
  endfacet
  facet normal -0.994522 0.104528 2.38098e-15
    outer loop
      vertex -50.6431 6.25 0
      vertex -50.179 10.6659 -2
      vertex -51.3 2.9064e-14 -2
    endloop
  endfacet
  facet normal -0.994522 0.104528 0
    outer loop
      vertex -51.3 2.9064e-14 0
      vertex -50.6431 6.25 0
      vertex -51.3 2.9064e-14 -2
    endloop
  endfacet
  facet normal -0.994522 0.104528 0
    outer loop
      vertex -50.6431 6.25 5
      vertex -50.179 10.6659 -2
      vertex -50.6431 6.25 0
    endloop
  endfacet
  facet normal -0.994522 0.104528 0
    outer loop
      vertex -51.3 2.9064e-14 5
      vertex -51.3 2.9064e-14 67
      vertex -50.6431 6.25 5
    endloop
  endfacet
  facet normal -0.994522 0.104528 0
    outer loop
      vertex -50.179 10.6659 67
      vertex -50.179 10.6659 -2
      vertex -50.6431 6.25 5
    endloop
  endfacet
  facet normal -0.994522 0.104528 -7.74738e-17
    outer loop
      vertex -51.3 2.9064e-14 67
      vertex -50.179 10.6659 67
      vertex -50.6431 6.25 5
    endloop
  endfacet
  facet normal 0.743145 -0.669131 0
    outer loop
      vertex 41.5026 -30.1534 -2
      vertex 34.3264 -38.1233 67
      vertex 34.3264 -38.1233 -2
    endloop
  endfacet
  facet normal 0.743145 -0.669131 0
    outer loop
      vertex 41.5026 -30.1534 -2
      vertex 41.5026 -30.1534 67
      vertex 34.3264 -38.1233 67
    endloop
  endfacet
  facet normal 0.866025 -0.5 0
    outer loop
      vertex 46.8649 -20.8656 -2
      vertex 41.5026 -30.1534 67
      vertex 41.5026 -30.1534 -2
    endloop
  endfacet
  facet normal 0.866025 -0.5 0
    outer loop
      vertex 46.8649 -20.8656 -2
      vertex 46.8649 -20.8656 67
      vertex 41.5026 -30.1534 67
    endloop
  endfacet
  facet normal 0.951057 0.309017 0
    outer loop
      vertex 50.179 10.6659 67
      vertex 50.179 10.6659 -2
      vertex 46.8649 20.8656 -2
    endloop
  endfacet
  facet normal 0.951057 0.309017 0
    outer loop
      vertex 46.8649 20.8656 67
      vertex 50.179 10.6659 67
      vertex 46.8649 20.8656 -2
    endloop
  endfacet
  facet normal 0.994522 0.104528 0
    outer loop
      vertex 51.3 0 67
      vertex 51.3 0 -2
      vertex 50.179 10.6659 -2
    endloop
  endfacet
  facet normal 0.994522 0.104528 0
    outer loop
      vertex 50.179 10.6659 67
      vertex 51.3 0 67
      vertex 50.179 10.6659 -2
    endloop
  endfacet
  facet normal 0.406737 0.913545 0
    outer loop
      vertex 15.8526 48.7892 67
      vertex 25.65 44.4271 -2
      vertex 15.8526 48.7892 -2
    endloop
  endfacet
  facet normal 0.406737 0.913545 0
    outer loop
      vertex 15.8526 48.7892 67
      vertex 25.65 44.4271 67
      vertex 25.65 44.4271 -2
    endloop
  endfacet
  facet normal 0.207912 0.978148 0
    outer loop
      vertex 5.36231 51.019 67
      vertex 15.8526 48.7892 -2
      vertex 5.36231 51.019 -2
    endloop
  endfacet
  facet normal 0.207912 0.978148 0
    outer loop
      vertex 5.36231 51.019 67
      vertex 15.8526 48.7892 67
      vertex 15.8526 48.7892 -2
    endloop
  endfacet
  facet normal 0.587785 0.809017 0
    outer loop
      vertex 25.65 44.4271 67
      vertex 34.3264 38.1233 -2
      vertex 25.65 44.4271 -2
    endloop
  endfacet
  facet normal 0.587785 0.809017 0
    outer loop
      vertex 25.65 44.4271 67
      vertex 34.3264 38.1233 67
      vertex 34.3264 38.1233 -2
    endloop
  endfacet
  facet normal -0.866025 0.5 0
    outer loop
      vertex -46.8649 20.8656 67
      vertex -41.5026 30.1534 -2
      vertex -46.8649 20.8656 -2
    endloop
  endfacet
  facet normal -0.866025 0.5 0
    outer loop
      vertex -46.8649 20.8656 67
      vertex -41.5026 30.1534 67
      vertex -41.5026 30.1534 -2
    endloop
  endfacet
  facet normal -0.587785 -0.809017 0
    outer loop
      vertex -25.65 -44.4271 -2
      vertex -34.3264 -38.1233 67
      vertex -34.3264 -38.1233 -2
    endloop
  endfacet
  facet normal -0.587785 -0.809017 0
    outer loop
      vertex -25.65 -44.4271 -2
      vertex -25.65 -44.4271 67
      vertex -34.3264 -38.1233 67
    endloop
  endfacet
  facet normal -0.743145 -0.669131 0
    outer loop
      vertex -34.3264 -38.1233 67
      vertex -41.5026 -30.1534 67
      vertex -41.5026 -30.1534 -2
    endloop
  endfacet
  facet normal -0.743145 -0.669131 0
    outer loop
      vertex -34.3264 -38.1233 -2
      vertex -34.3264 -38.1233 67
      vertex -41.5026 -30.1534 -2
    endloop
  endfacet
  facet normal -0.866025 -0.5 0
    outer loop
      vertex -41.5026 -30.1534 67
      vertex -46.8649 -20.8656 67
      vertex -46.8649 -20.8656 -2
    endloop
  endfacet
  facet normal -0.866025 -0.5 0
    outer loop
      vertex -41.5026 -30.1534 -2
      vertex -41.5026 -30.1534 67
      vertex -46.8649 -20.8656 -2
    endloop
  endfacet
  facet normal -0.951057 -0.309017 0
    outer loop
      vertex -46.8649 -20.8656 67
      vertex -50.179 -10.6659 67
      vertex -50.179 -10.6659 -2
    endloop
  endfacet
  facet normal -0.951057 -0.309017 0
    outer loop
      vertex -46.8649 -20.8656 -2
      vertex -46.8649 -20.8656 67
      vertex -50.179 -10.6659 -2
    endloop
  endfacet
  facet normal 0.951057 -0.309017 0
    outer loop
      vertex 50.179 -10.6659 -2
      vertex 46.8649 -20.8656 67
      vertex 46.8649 -20.8656 -2
    endloop
  endfacet
  facet normal 0.951057 -0.309017 0
    outer loop
      vertex 50.179 -10.6659 -2
      vertex 50.179 -10.6659 67
      vertex 46.8649 -20.8656 67
    endloop
  endfacet
  facet normal 0.994522 -0.104528 0
    outer loop
      vertex 51.3 0 -2
      vertex 50.179 -10.6659 67
      vertex 50.179 -10.6659 -2
    endloop
  endfacet
  facet normal 0.994522 -0.104528 0
    outer loop
      vertex 51.3 0 -2
      vertex 51.3 0 67
      vertex 50.179 -10.6659 67
    endloop
  endfacet
  facet normal 0.587785 -0.809017 0
    outer loop
      vertex 34.3264 -38.1233 -2
      vertex 25.65 -44.4271 67
      vertex 25.65 -44.4271 -2
    endloop
  endfacet
  facet normal 0.587785 -0.809017 0
    outer loop
      vertex 34.3264 -38.1233 -2
      vertex 34.3264 -38.1233 67
      vertex 25.65 -44.4271 67
    endloop
  endfacet
  facet normal 0.866025 0.5 0
    outer loop
      vertex 46.8649 20.8656 67
      vertex 46.8649 20.8656 -2
      vertex 41.5026 30.1534 -2
    endloop
  endfacet
  facet normal 0.866025 0.5 0
    outer loop
      vertex 41.5026 30.1534 67
      vertex 46.8649 20.8656 67
      vertex 41.5026 30.1534 -2
    endloop
  endfacet
  facet normal -0.587785 0.809017 0
    outer loop
      vertex -34.3264 38.1233 67
      vertex -25.65 44.4271 -2
      vertex -34.3264 38.1233 -2
    endloop
  endfacet
  facet normal -0.587785 0.809017 0
    outer loop
      vertex -34.3264 38.1233 67
      vertex -25.65 44.4271 67
      vertex -25.65 44.4271 -2
    endloop
  endfacet
  facet normal -0.406737 0.913545 0
    outer loop
      vertex -25.65 44.4271 67
      vertex -15.8526 48.7892 -2
      vertex -25.65 44.4271 -2
    endloop
  endfacet
  facet normal -0.406737 0.913545 0
    outer loop
      vertex -25.65 44.4271 67
      vertex -15.8526 48.7892 67
      vertex -15.8526 48.7892 -2
    endloop
  endfacet
  facet normal -0.207912 0.978148 0
    outer loop
      vertex -15.8526 48.7892 67
      vertex -5.36231 51.019 -2
      vertex -15.8526 48.7892 -2
    endloop
  endfacet
  facet normal -0.207912 0.978148 0
    outer loop
      vertex -15.8526 48.7892 67
      vertex -5.36231 51.019 67
      vertex -5.36231 51.019 -2
    endloop
  endfacet
  facet normal -0.951057 0.309017 0
    outer loop
      vertex -50.179 10.6659 67
      vertex -46.8649 20.8656 -2
      vertex -50.179 10.6659 -2
    endloop
  endfacet
  facet normal -0.951057 0.309017 0
    outer loop
      vertex -50.179 10.6659 67
      vertex -46.8649 20.8656 67
      vertex -46.8649 20.8656 -2
    endloop
  endfacet
  facet normal 0 0 1
    outer loop
      vertex -46.8649 20.8656 67
      vertex -50.179 10.6659 67
      vertex -48.2227 10.25 67
    endloop
  endfacet
  facet normal 0 0 1
    outer loop
      vertex -45.0378 -20.0521 67
      vertex -48.2227 -10.25 67
      vertex -50.179 -10.6659 67
    endloop
  endfacet
  facet normal 0 0 1
    outer loop
      vertex -49.3 2.79309e-14 67
      vertex -51.3 2.9064e-14 67
      vertex -50.179 -10.6659 67
    endloop
  endfacet
  facet normal 0 0 1
    outer loop
      vertex -48.2227 -10.25 67
      vertex -49.3 2.79309e-14 67
      vertex -50.179 -10.6659 67
    endloop
  endfacet
  facet normal 0 0 1
    outer loop
      vertex -48.2227 10.25 67
      vertex -50.179 10.6659 67
      vertex -51.3 2.9064e-14 67
    endloop
  endfacet
  facet normal 0 0 1
    outer loop
      vertex -46.8649 20.8656 67
      vertex -48.2227 10.25 67
      vertex -45.0378 20.0521 67
    endloop
  endfacet
  facet normal 0 0 1
    outer loop
      vertex -48.2227 10.25 67
      vertex -51.3 2.9064e-14 67
      vertex -49.3 2.79309e-14 67
    endloop
  endfacet
  facet normal -0 0 1
    outer loop
      vertex -46.8649 20.8656 67
      vertex -45.0378 20.0521 67
      vertex -41.5026 30.1534 67
    endloop
  endfacet
  facet normal 0 0 1
    outer loop
      vertex -25.65 44.4271 67
      vertex -34.3264 38.1233 67
      vertex -24.65 42.6951 67
    endloop
  endfacet
  facet normal 0 0 1
    outer loop
      vertex -45.0378 20.0521 67
      vertex -39.8845 28.9778 67
      vertex -41.5026 30.1534 67
    endloop
  endfacet
  facet normal 0 0 1
    outer loop
      vertex -32.9881 36.637 67
      vertex -34.3264 38.1233 67
      vertex -41.5026 30.1534 67
    endloop
  endfacet
  facet normal -0 0 1
    outer loop
      vertex -34.3264 38.1233 67
      vertex -32.9881 36.637 67
      vertex -24.65 42.6951 67
    endloop
  endfacet
  facet normal 0 0 1
    outer loop
      vertex -32.9881 36.637 67
      vertex -41.5026 30.1534 67
      vertex -39.8845 28.9778 67
    endloop
  endfacet
  facet normal -0 0 1
    outer loop
      vertex -25.65 44.4271 67
      vertex -24.65 42.6951 67
      vertex -15.8526 48.7892 67
    endloop
  endfacet
  facet normal 0 0 1
    outer loop
      vertex 5.36231 51.019 67
      vertex -5.36231 51.019 67
      vertex -5.15325 49.0299 67
    endloop
  endfacet
  facet normal 0 0 1
    outer loop
      vertex -24.65 42.6951 67
      vertex -15.2345 46.8871 67
      vertex -15.8526 48.7892 67
    endloop
  endfacet
  facet normal 0 0 1
    outer loop
      vertex -5.15325 49.0299 67
      vertex -5.36231 51.019 67
      vertex -15.8526 48.7892 67
    endloop
  endfacet
  facet normal 0 0 1
    outer loop
      vertex 5.36231 51.019 67
      vertex -5.15325 49.0299 67
      vertex 5.15325 49.0299 67
    endloop
  endfacet
  facet normal 0 0 1
    outer loop
      vertex -5.15325 49.0299 67
      vertex -15.8526 48.7892 67
      vertex -15.2345 46.8871 67
    endloop
  endfacet
  facet normal 0 0 1
    outer loop
      vertex 5.36231 51.019 67
      vertex 5.15325 49.0299 67
      vertex 15.8526 48.7892 67
    endloop
  endfacet
  facet normal 0 0 1
    outer loop
      vertex 34.3264 38.1233 67
      vertex 25.65 44.4271 67
      vertex 32.9881 36.637 67
    endloop
  endfacet
  facet normal 0 0 1
    outer loop
      vertex 5.15325 49.0299 67
      vertex 15.2345 46.8871 67
      vertex 15.8526 48.7892 67
    endloop
  endfacet
  facet normal 0 -0 1
    outer loop
      vertex 24.65 42.6951 67
      vertex 25.65 44.4271 67
      vertex 15.8526 48.7892 67
    endloop
  endfacet
  facet normal 0 0 1
    outer loop
      vertex 25.65 44.4271 67
      vertex 24.65 42.6951 67
      vertex 32.9881 36.637 67
    endloop
  endfacet
  facet normal 0 0 1
    outer loop
      vertex 24.65 42.6951 67
      vertex 15.8526 48.7892 67
      vertex 15.2345 46.8871 67
    endloop
  endfacet
  facet normal 0 0 1
    outer loop
      vertex 34.3264 38.1233 67
      vertex 39.8845 28.9778 67
      vertex 41.5026 30.1534 67
    endloop
  endfacet
  facet normal 0 0 1
    outer loop
      vertex 50.179 10.6659 67
      vertex 46.8649 20.8656 67
      vertex 45.0378 20.0521 67
    endloop
  endfacet
  facet normal -0 0 1
    outer loop
      vertex 32.9881 36.637 67
      vertex 39.8845 28.9778 67
      vertex 34.3264 38.1233 67
    endloop
  endfacet
  facet normal 0 -0 1
    outer loop
      vertex 45.0378 20.0521 67
      vertex 46.8649 20.8656 67
      vertex 41.5026 30.1534 67
    endloop
  endfacet
  facet normal 0 0 1
    outer loop
      vertex 50.179 10.6659 67
      vertex 45.0378 20.0521 67
      vertex 48.2227 10.25 67
    endloop
  endfacet
  facet normal 0 0 1
    outer loop
      vertex 45.0378 20.0521 67
      vertex 41.5026 30.1534 67
      vertex 39.8845 28.9778 67
    endloop
  endfacet
  facet normal 0 0 1
    outer loop
      vertex 50.179 10.6659 67
      vertex 48.2227 10.25 67
      vertex 51.3 0 67
    endloop
  endfacet
  facet normal 0 -0 1
    outer loop
      vertex 46.8649 -20.8656 67
      vertex 50.179 -10.6659 67
      vertex 45.0378 -20.0521 67
    endloop
  endfacet
  facet normal 0 0 1
    outer loop
      vertex 48.2227 10.25 67
      vertex 49.3 0 67
      vertex 51.3 0 67
    endloop
  endfacet
  facet normal -0 0 1
    outer loop
      vertex 49.3 0 67
      vertex 50.179 -10.6659 67
      vertex 51.3 0 67
    endloop
  endfacet
  facet normal 0 0 1
    outer loop
      vertex 50.179 -10.6659 67
      vertex 48.2227 -10.25 67
      vertex 45.0378 -20.0521 67
    endloop
  endfacet
  facet normal -0 0 1
    outer loop
      vertex 48.2227 -10.25 67
      vertex 50.179 -10.6659 67
      vertex 49.3 0 67
    endloop
  endfacet
  facet normal 0 0 1
    outer loop
      vertex 46.8649 -20.8656 67
      vertex 39.8845 -28.9778 67
      vertex 41.5026 -30.1534 67
    endloop
  endfacet
  facet normal 0 -0 1
    outer loop
      vertex 25.65 -44.4271 67
      vertex 34.3264 -38.1233 67
      vertex 24.65 -42.6951 67
    endloop
  endfacet
  facet normal 0 0 1
    outer loop
      vertex 45.0378 -20.0521 67
      vertex 39.8845 -28.9778 67
      vertex 46.8649 -20.8656 67
    endloop
  endfacet
  facet normal -0 0 1
    outer loop
      vertex 32.9881 -36.637 67
      vertex 34.3264 -38.1233 67
      vertex 41.5026 -30.1534 67
    endloop
  endfacet
  facet normal 0 0 1
    outer loop
      vertex 34.3264 -38.1233 67
      vertex 32.9881 -36.637 67
      vertex 24.65 -42.6951 67
    endloop
  endfacet
  facet normal 0 0 1
    outer loop
      vertex 32.9881 -36.637 67
      vertex 41.5026 -30.1534 67
      vertex 39.8845 -28.9778 67
    endloop
  endfacet
  facet normal 0 0 1
    outer loop
      vertex 25.65 -44.4271 67
      vertex 24.65 -42.6951 67
      vertex 15.8526 -48.7892 67
    endloop
  endfacet
  facet normal -0 0 1
    outer loop
      vertex -5.36231 -51.019 67
      vertex 5.36231 -51.019 67
      vertex -5.15325 -49.0299 67
    endloop
  endfacet
  facet normal 0 0 1
    outer loop
      vertex 24.65 -42.6951 67
      vertex 15.2345 -46.8871 67
      vertex 15.8526 -48.7892 67
    endloop
  endfacet
  facet normal 0 0 1
    outer loop
      vertex 15.2345 -46.8871 67
      vertex 5.36231 -51.019 67
      vertex 15.8526 -48.7892 67
    endloop
  endfacet
  facet normal 0 0 1
    outer loop
      vertex 5.36231 -51.019 67
      vertex 5.15325 -49.0299 67
      vertex -5.15325 -49.0299 67
    endloop
  endfacet
  facet normal -0 0 1
    outer loop
      vertex 5.15325 -49.0299 67
      vertex 5.36231 -51.019 67
      vertex 15.2345 -46.8871 67
    endloop
  endfacet
  facet normal 0 -0 1
    outer loop
      vertex -5.36231 -51.019 67
      vertex -5.15325 -49.0299 67
      vertex -15.8526 -48.7892 67
    endloop
  endfacet
  facet normal 0 0 1
    outer loop
      vertex -34.3264 -38.1233 67
      vertex -25.65 -44.4271 67
      vertex -24.65 -42.6951 67
    endloop
  endfacet
  facet normal 0 0 1
    outer loop
      vertex -5.15325 -49.0299 67
      vertex -15.2345 -46.8871 67
      vertex -15.8526 -48.7892 67
    endloop
  endfacet
  facet normal 0 0 1
    outer loop
      vertex -15.2345 -46.8871 67
      vertex -25.65 -44.4271 67
      vertex -15.8526 -48.7892 67
    endloop
  endfacet
  facet normal -0 0 1
    outer loop
      vertex -34.3264 -38.1233 67
      vertex -24.65 -42.6951 67
      vertex -32.9881 -36.637 67
    endloop
  endfacet
  facet normal 0 0 1
    outer loop
      vertex -24.65 -42.6951 67
      vertex -25.65 -44.4271 67
      vertex -15.2345 -46.8871 67
    endloop
  endfacet
  facet normal 0 -0 1
    outer loop
      vertex -34.3264 -38.1233 67
      vertex -32.9881 -36.637 67
      vertex -41.5026 -30.1534 67
    endloop
  endfacet
  facet normal 0 0 1
    outer loop
      vertex -50.179 -10.6659 67
      vertex -46.8649 -20.8656 67
      vertex -45.0378 -20.0521 67
    endloop
  endfacet
  facet normal 0 0 1
    outer loop
      vertex -32.9881 -36.637 67
      vertex -39.8845 -28.9778 67
      vertex -41.5026 -30.1534 67
    endloop
  endfacet
  facet normal 0 0 1
    outer loop
      vertex -39.8845 -28.9778 67
      vertex -46.8649 -20.8656 67
      vertex -41.5026 -30.1534 67
    endloop
  endfacet
  facet normal 0 0 1
    outer loop
      vertex -45.0378 -20.0521 67
      vertex -46.8649 -20.8656 67
      vertex -39.8845 -28.9778 67
    endloop
  endfacet
  facet normal -0.207912 -0.978148 0
    outer loop
      vertex -5.36231 -51.019 -2
      vertex -15.8526 -48.7892 67
      vertex -15.8526 -48.7892 -2
    endloop
  endfacet
  facet normal -0.207912 -0.978148 0
    outer loop
      vertex -5.36231 -51.019 -2
      vertex -5.36231 -51.019 67
      vertex -15.8526 -48.7892 67
    endloop
  endfacet
  facet normal -0.406737 -0.913545 0
    outer loop
      vertex -15.8526 -48.7892 -2
      vertex -25.65 -44.4271 67
      vertex -25.65 -44.4271 -2
    endloop
  endfacet
  facet normal -0.406737 -0.913545 0
    outer loop
      vertex -15.8526 -48.7892 -2
      vertex -15.8526 -48.7892 67
      vertex -25.65 -44.4271 67
    endloop
  endfacet
  facet normal 0 0 -1
    outer loop
      vertex -23.8838 -19.0427 -2
      vertex -50.179 -10.6659 -2
      vertex -22.994 -17.3475 -2
    endloop
  endfacet
  facet normal 0 -0 -1
    outer loop
      vertex -46.8649 20.8656 -2
      vertex -23.8838 19.0427 -2
      vertex -50.179 10.6659 -2
    endloop
  endfacet
  facet normal 0 0 -1
    outer loop
      vertex -15.8526 48.7892 -2
      vertex -17.7277 23.2919 -2
      vertex -19.5179 23.9708 -2
    endloop
  endfacet
  facet normal -0 0 -1
    outer loop
      vertex 25.65 -44.4271 -2
      vertex 15.8526 -48.7892 -2
      vertex 18.5816 -23.7401 -2
    endloop
  endfacet
  facet normal 0 0 -1
    outer loop
      vertex -25.65 -44.4271 -2
      vertex -34.3264 -38.1233 -2
      vertex -21.4184 -23.7401 -2
    endloop
  endfacet
  facet normal 0 0 -1
    outer loop
      vertex -46.8649 -20.8656 -2
      vertex -23.8838 -19.0427 -2
      vertex -23.8838 -20.9573 -2
    endloop
  endfacet
  facet normal 0 0 -1
    outer loop
      vertex -34.3264 -38.1233 -2
      vertex -41.5026 -30.1534 -2
      vertex -22.994 -22.6525 -2
    endloop
  endfacet
  facet normal 0 0 -1
    outer loop
      vertex -41.5026 -30.1534 -2
      vertex -46.8649 -20.8656 -2
      vertex -23.8838 -20.9573 -2
    endloop
  endfacet
  facet normal 0 0 -1
    outer loop
      vertex -16 20 -2
      vertex 16.1162 20.9573 -2
      vertex 16.1162 19.0427 -2
    endloop
  endfacet
  facet normal -0 0 -1
    outer loop
      vertex -23.8838 -19.0427 -2
      vertex -46.8649 -20.8656 -2
      vertex -50.179 -10.6659 -2
    endloop
  endfacet
  facet normal 0 0 -1
    outer loop
      vertex -25.65 -44.4271 -2
      vertex -19.5179 -23.9708 -2
      vertex -15.8526 -48.7892 -2
    endloop
  endfacet
  facet normal 0 0 -1
    outer loop
      vertex 5.36231 -51.019 -2
      vertex -5.36231 -51.019 -2
      vertex -16.4582 -21.8589 -2
    endloop
  endfacet
  facet normal 0 -0 -1
    outer loop
      vertex -23.8838 -20.9573 -2
      vertex -22.994 -22.6525 -2
      vertex -41.5026 -30.1534 -2
    endloop
  endfacet
  facet normal 0 0 -1
    outer loop
      vertex -17.7277 -23.2919 -2
      vertex -5.36231 -51.019 -2
      vertex -15.8526 -48.7892 -2
    endloop
  endfacet
  facet normal 0 -0 -1
    outer loop
      vertex -22.994 -22.6525 -2
      vertex -21.4184 -23.7401 -2
      vertex -34.3264 -38.1233 -2
    endloop
  endfacet
  facet normal 0 0 -1
    outer loop
      vertex 17.006 -22.6525 -2
      vertex 15.8526 -48.7892 -2
      vertex 5.36231 -51.019 -2
    endloop
  endfacet
  facet normal -0 0 -1
    outer loop
      vertex -19.5179 -23.9708 -2
      vertex -25.65 -44.4271 -2
      vertex -21.4184 -23.7401 -2
    endloop
  endfacet
  facet normal 0 0 -1
    outer loop
      vertex -19.5179 -23.9708 -2
      vertex -17.7277 -23.2919 -2
      vertex -15.8526 -48.7892 -2
    endloop
  endfacet
  facet normal 0 -0 -1
    outer loop
      vertex -16.4582 -21.8589 -2
      vertex -5.36231 -51.019 -2
      vertex -17.7277 -23.2919 -2
    endloop
  endfacet
  facet normal -0 0 -1
    outer loop
      vertex 17.006 -22.6525 -2
      vertex 5.36231 -51.019 -2
      vertex -16.4582 -21.8589 -2
    endloop
  endfacet
  facet normal -0 0 -1
    outer loop
      vertex -23.8838 20.9573 -2
      vertex -46.8649 20.8656 -2
      vertex -41.5026 30.1534 -2
    endloop
  endfacet
  facet normal -0 0 -1
    outer loop
      vertex 16.1162 -20.9573 -2
      vertex -16.4582 -21.8589 -2
      vertex -16 -20 -2
    endloop
  endfacet
  facet normal 0 0 -1
    outer loop
      vertex -17.7277 16.7081 -2
      vertex 17.006 17.3475 -2
      vertex -17.7277 -16.7081 -2
    endloop
  endfacet
  facet normal 0 0 -1
    outer loop
      vertex -51.3 2.9064e-14 -2
      vertex -50.179 10.6659 -2
      vertex -22.994 17.3475 -2
    endloop
  endfacet
  facet normal 0 0 -1
    outer loop
      vertex 17.006 22.6525 -2
      vertex 16.1162 20.9573 -2
      vertex -16.4582 21.8589 -2
    endloop
  endfacet
  facet normal 0 0 -1
    outer loop
      vertex -21.4184 -16.2599 -2
      vertex -51.3 2.9064e-14 -2
      vertex -21.4184 16.2599 -2
    endloop
  endfacet
  facet normal 0 0 -1
    outer loop
      vertex -19.5179 -16.0292 -2
      vertex -17.7277 16.7081 -2
      vertex -17.7277 -16.7081 -2
    endloop
  endfacet
  facet normal 0 0 -1
    outer loop
      vertex -22.994 -17.3475 -2
      vertex -50.179 -10.6659 -2
      vertex -51.3 2.9064e-14 -2
    endloop
  endfacet
  facet normal 0 0 -1
    outer loop
      vertex -22.994 -17.3475 -2
      vertex -51.3 2.9064e-14 -2
      vertex -21.4184 -16.2599 -2
    endloop
  endfacet
  facet normal -0 0 -1
    outer loop
      vertex -22.994 22.6525 -2
      vertex -23.8838 20.9573 -2
      vertex -41.5026 30.1534 -2
    endloop
  endfacet
  facet normal -0 0 -1
    outer loop
      vertex 20.4821 -16.0292 -2
      vertex 18.5816 -16.2599 -2
      vertex 18.5816 16.2599 -2
    endloop
  endfacet
  facet normal 0 0 -1
    outer loop
      vertex -21.4184 -16.2599 -2
      vertex -21.4184 16.2599 -2
      vertex -19.5179 -16.0292 -2
    endloop
  endfacet
  facet normal 0 0 -1
    outer loop
      vertex -23.8838 19.0427 -2
      vertex -46.8649 20.8656 -2
      vertex -23.8838 20.9573 -2
    endloop
  endfacet
  facet normal 0 -0 -1
    outer loop
      vertex -23.8838 19.0427 -2
      vertex -22.994 17.3475 -2
      vertex -50.179 10.6659 -2
    endloop
  endfacet
  facet normal 0 0 -1
    outer loop
      vertex -19.5179 -16.0292 -2
      vertex -19.5179 16.0292 -2
      vertex -17.7277 16.7081 -2
    endloop
  endfacet
  facet normal 0 -0 -1
    outer loop
      vertex -22.994 17.3475 -2
      vertex -21.4184 16.2599 -2
      vertex -51.3 2.9064e-14 -2
    endloop
  endfacet
  facet normal 0 0 -1
    outer loop
      vertex -21.4184 16.2599 -2
      vertex -19.5179 16.0292 -2
      vertex -19.5179 -16.0292 -2
    endloop
  endfacet
  facet normal 0 0 -1
    outer loop
      vertex 17.006 -17.3475 -2
      vertex -17.7277 -16.7081 -2
      vertex 17.006 17.3475 -2
    endloop
  endfacet
  facet normal 0 0 -1
    outer loop
      vertex -16.4582 18.1411 -2
      vertex -16 20 -2
      vertex 16.1162 19.0427 -2
    endloop
  endfacet
  facet normal 0 0 -1
    outer loop
      vertex 34.3264 38.1233 -2
      vertex 22.2723 23.2919 -2
      vertex 20.4821 23.9708 -2
    endloop
  endfacet
  facet normal -0 0 -1
    outer loop
      vertex 5.36231 51.019 -2
      vertex -16.4582 21.8589 -2
      vertex -5.36231 51.019 -2
    endloop
  endfacet
  facet normal 0 0 -1
    outer loop
      vertex -16.4582 -18.1411 -2
      vertex -17.7277 -16.7081 -2
      vertex 17.006 -17.3475 -2
    endloop
  endfacet
  facet normal 0 0 -1
    outer loop
      vertex -5.36231 51.019 -2
      vertex -17.7277 23.2919 -2
      vertex -15.8526 48.7892 -2
    endloop
  endfacet
  facet normal 0 0 -1
    outer loop
      vertex -34.3264 38.1233 -2
      vertex -25.65 44.4271 -2
      vertex -21.4184 23.7401 -2
    endloop
  endfacet
  facet normal 0 0 -1
    outer loop
      vertex -16 20 -2
      vertex -16.4582 21.8589 -2
      vertex 16.1162 20.9573 -2
    endloop
  endfacet
  facet normal 0 0 -1
    outer loop
      vertex -19.5179 23.9708 -2
      vertex -25.65 44.4271 -2
      vertex -15.8526 48.7892 -2
    endloop
  endfacet
  facet normal 0 0 -1
    outer loop
      vertex -17.7277 23.2919 -2
      vertex -5.36231 51.019 -2
      vertex -16.4582 21.8589 -2
    endloop
  endfacet
  facet normal 0 0 -1
    outer loop
      vertex -25.65 44.4271 -2
      vertex -19.5179 23.9708 -2
      vertex -21.4184 23.7401 -2
    endloop
  endfacet
  facet normal 0 0 -1
    outer loop
      vertex -34.3264 38.1233 -2
      vertex -21.4184 23.7401 -2
      vertex -22.994 22.6525 -2
    endloop
  endfacet
  facet normal 0 -0 -1
    outer loop
      vertex -34.3264 38.1233 -2
      vertex -22.994 22.6525 -2
      vertex -41.5026 30.1534 -2
    endloop
  endfacet
  facet normal -0 0 -1
    outer loop
      vertex 16.1162 -19.0427 -2
      vertex -16 -20 -2
      vertex -16.4582 -18.1411 -2
    endloop
  endfacet
  facet normal 0 0 -1
    outer loop
      vertex -16.4582 -21.8589 -2
      vertex 16.1162 -20.9573 -2
      vertex 17.006 -22.6525 -2
    endloop
  endfacet
  facet normal 0 0 -1
    outer loop
      vertex 16.1162 -20.9573 -2
      vertex -16 -20 -2
      vertex 16.1162 -19.0427 -2
    endloop
  endfacet
  facet normal 0 0 -1
    outer loop
      vertex 25.65 -44.4271 -2
      vertex 20.4821 -23.9708 -2
      vertex 34.3264 -38.1233 -2
    endloop
  endfacet
  facet normal -0 0 -1
    outer loop
      vertex 46.8649 -20.8656 -2
      vertex 41.5026 -30.1534 -2
      vertex 24 -20 -2
    endloop
  endfacet
  facet normal 0 -0 -1
    outer loop
      vertex 17.006 -22.6525 -2
      vertex 18.5816 -23.7401 -2
      vertex 15.8526 -48.7892 -2
    endloop
  endfacet
  facet normal 0 0 -1
    outer loop
      vertex 23.5418 -21.8589 -2
      vertex 41.5026 -30.1534 -2
      vertex 34.3264 -38.1233 -2
    endloop
  endfacet
  facet normal 0 0 -1
    outer loop
      vertex 34.3264 -38.1233 -2
      vertex 20.4821 -23.9708 -2
      vertex 22.2723 -23.2919 -2
    endloop
  endfacet
  facet normal -0 -0 -1
    outer loop
      vertex 20.4821 -23.9708 -2
      vertex 25.65 -44.4271 -2
      vertex 18.5816 -23.7401 -2
    endloop
  endfacet
  facet normal 0 0 -1
    outer loop
      vertex 46.8649 -20.8656 -2
      vertex 23.5418 -18.1411 -2
      vertex 50.179 -10.6659 -2
    endloop
  endfacet
  facet normal 0 0 -1
    outer loop
      vertex 22.2723 -23.2919 -2
      vertex 23.5418 -21.8589 -2
      vertex 34.3264 -38.1233 -2
    endloop
  endfacet
  facet normal 0 0 -1
    outer loop
      vertex 22.2723 -16.7081 -2
      vertex 51.3 0 -2
      vertex 50.179 -10.6659 -2
    endloop
  endfacet
  facet normal 0 0 -1
    outer loop
      vertex 23.5418 -21.8589 -2
      vertex 24 -20 -2
      vertex 41.5026 -30.1534 -2
    endloop
  endfacet
  facet normal 0 0 -1
    outer loop
      vertex 24 -20 -2
      vertex 23.5418 -18.1411 -2
      vertex 46.8649 -20.8656 -2
    endloop
  endfacet
  facet normal 0 0 -1
    outer loop
      vertex 23.5418 -18.1411 -2
      vertex 22.2723 -16.7081 -2
      vertex 50.179 -10.6659 -2
    endloop
  endfacet
  facet normal -0 0 -1
    outer loop
      vertex 51.3 0 -2
      vertex 22.2723 -16.7081 -2
      vertex 22.2723 16.7081 -2
    endloop
  endfacet
  facet normal 0 0 -1
    outer loop
      vertex -16.4582 -18.1411 -2
      vertex 17.006 -17.3475 -2
      vertex 16.1162 -19.0427 -2
    endloop
  endfacet
  facet normal 0 -0 -1
    outer loop
      vertex 22.2723 16.7081 -2
      vertex 22.2723 -16.7081 -2
      vertex 20.4821 -16.0292 -2
    endloop
  endfacet
  facet normal 0 0 -1
    outer loop
      vertex 15.8526 48.7892 -2
      vertex 25.65 44.4271 -2
      vertex 18.5816 23.7401 -2
    endloop
  endfacet
  facet normal 0 -0 -1
    outer loop
      vertex -16.4582 18.1411 -2
      vertex 17.006 17.3475 -2
      vertex -17.7277 16.7081 -2
    endloop
  endfacet
  facet normal 0 0 -1
    outer loop
      vertex 17.006 17.3475 -2
      vertex 18.5816 -16.2599 -2
      vertex 17.006 -17.3475 -2
    endloop
  endfacet
  facet normal 0 -0 -1
    outer loop
      vertex 41.5026 30.1534 -2
      vertex 46.8649 20.8656 -2
      vertex 24 20 -2
    endloop
  endfacet
  facet normal 0 0 -1
    outer loop
      vertex 17.006 17.3475 -2
      vertex -16.4582 18.1411 -2
      vertex 16.1162 19.0427 -2
    endloop
  endfacet
  facet normal 0 0 -1
    outer loop
      vertex 51.3 0 -2
      vertex 22.2723 16.7081 -2
      vertex 50.179 10.6659 -2
    endloop
  endfacet
  facet normal -0 -0 -1
    outer loop
      vertex 18.5816 16.2599 -2
      vertex 18.5816 -16.2599 -2
      vertex 17.006 17.3475 -2
    endloop
  endfacet
  facet normal 0 0 -1
    outer loop
      vertex 18.5816 16.2599 -2
      vertex 20.4821 16.0292 -2
      vertex 20.4821 -16.0292 -2
    endloop
  endfacet
  facet normal 0 0 -1
    outer loop
      vertex 23.5418 18.1411 -2
      vertex 46.8649 20.8656 -2
      vertex 50.179 10.6659 -2
    endloop
  endfacet
  facet normal 0 0 -1
    outer loop
      vertex 50.179 10.6659 -2
      vertex 22.2723 16.7081 -2
      vertex 23.5418 18.1411 -2
    endloop
  endfacet
  facet normal 0 0 -1
    outer loop
      vertex 22.2723 16.7081 -2
      vertex 20.4821 -16.0292 -2
      vertex 20.4821 16.0292 -2
    endloop
  endfacet
  facet normal -0 0 -1
    outer loop
      vertex 41.5026 30.1534 -2
      vertex 23.5418 21.8589 -2
      vertex 34.3264 38.1233 -2
    endloop
  endfacet
  facet normal 0 0 -1
    outer loop
      vertex 23.5418 18.1411 -2
      vertex 24 20 -2
      vertex 46.8649 20.8656 -2
    endloop
  endfacet
  facet normal 0 0 -1
    outer loop
      vertex 20.4821 23.9708 -2
      vertex 25.65 44.4271 -2
      vertex 34.3264 38.1233 -2
    endloop
  endfacet
  facet normal 0 0 -1
    outer loop
      vertex 23.5418 21.8589 -2
      vertex 41.5026 30.1534 -2
      vertex 24 20 -2
    endloop
  endfacet
  facet normal 0 0 -1
    outer loop
      vertex 22.2723 23.2919 -2
      vertex 34.3264 38.1233 -2
      vertex 23.5418 21.8589 -2
    endloop
  endfacet
  facet normal 0 0 -1
    outer loop
      vertex 25.65 44.4271 -2
      vertex 20.4821 23.9708 -2
      vertex 18.5816 23.7401 -2
    endloop
  endfacet
  facet normal -0 -0 -1
    outer loop
      vertex 15.8526 48.7892 -2
      vertex 17.006 22.6525 -2
      vertex 5.36231 51.019 -2
    endloop
  endfacet
  facet normal -0 0 -1
    outer loop
      vertex 18.5816 23.7401 -2
      vertex 17.006 22.6525 -2
      vertex 15.8526 48.7892 -2
    endloop
  endfacet
  facet normal -0 0 -1
    outer loop
      vertex 17.006 22.6525 -2
      vertex -16.4582 21.8589 -2
      vertex 5.36231 51.019 -2
    endloop
  endfacet
  facet normal 1 -0 0
    outer loop
      vertex 16.1162 19.0427 0
      vertex 16.1162 20.9573 -2
      vertex 16.1162 20.9573 0
    endloop
  endfacet
  facet normal 1 0 0
    outer loop
      vertex 16.1162 19.0427 0
      vertex 16.1162 19.0427 -2
      vertex 16.1162 20.9573 -2
    endloop
  endfacet
  facet normal 0.885456 -0.464723 0
    outer loop
      vertex 16.1162 20.9573 0
      vertex 17.006 22.6525 -2
      vertex 17.006 22.6525 0
    endloop
  endfacet
  facet normal 0.885456 -0.464723 0
    outer loop
      vertex 16.1162 20.9573 0
      vertex 16.1162 20.9573 -2
      vertex 17.006 22.6525 -2
    endloop
  endfacet
  facet normal -0.970942 0.239316 0
    outer loop
      vertex 24 20 -2
      vertex 23.5418 18.1411 0
      vertex 24 20 0
    endloop
  endfacet
  facet normal -0.970942 0.239316 0
    outer loop
      vertex 24 20 -2
      vertex 23.5418 18.1411 -2
      vertex 23.5418 18.1411 0
    endloop
  endfacet
  facet normal 0.120537 0.992709 -0
    outer loop
      vertex 20.4821 16.0292 -2
      vertex 18.5816 16.2599 0
      vertex 20.4821 16.0292 0
    endloop
  endfacet
  facet normal 0.120537 0.992709 0
    outer loop
      vertex 20.4821 16.0292 -2
      vertex 18.5816 16.2599 -2
      vertex 18.5816 16.2599 0
    endloop
  endfacet
  facet normal 0.885456 0.464723 -0
    outer loop
      vertex 16.1162 19.0427 -2
      vertex 16.1162 19.0427 0
      vertex 17.006 17.3475 0
    endloop
  endfacet
  facet normal 0.885456 0.464723 -0
    outer loop
      vertex 17.006 17.3475 -2
      vertex 16.1162 19.0427 -2
      vertex 17.006 17.3475 0
    endloop
  endfacet
  facet normal 0.568065 0.822984 -0
    outer loop
      vertex 18.5816 16.2599 -2
      vertex 17.006 17.3475 0
      vertex 18.5816 16.2599 0
    endloop
  endfacet
  facet normal 0.568065 0.822984 0
    outer loop
      vertex 18.5816 16.2599 -2
      vertex 17.006 17.3475 -2
      vertex 17.006 17.3475 0
    endloop
  endfacet
  facet normal -0.354605 0.935016 0
    outer loop
      vertex 22.2723 16.7081 -2
      vertex 20.4821 16.0292 0
      vertex 22.2723 16.7081 0
    endloop
  endfacet
  facet normal -0.354605 0.935016 0
    outer loop
      vertex 22.2723 16.7081 -2
      vertex 20.4821 16.0292 -2
      vertex 20.4821 16.0292 0
    endloop
  endfacet
  facet normal -0.970942 -0.239316 0
    outer loop
      vertex 23.5418 21.8589 -2
      vertex 24 20 -2
      vertex 24 20 0
    endloop
  endfacet
  facet normal -0.970942 -0.239316 -0
    outer loop
      vertex 23.5418 21.8589 0
      vertex 23.5418 21.8589 -2
      vertex 24 20 0
    endloop
  endfacet
  facet normal -0.354605 -0.935016 0
    outer loop
      vertex 20.4821 23.9708 0
      vertex 22.2723 23.2919 -2
      vertex 22.2723 23.2919 0
    endloop
  endfacet
  facet normal -0.354605 -0.935016 -0
    outer loop
      vertex 20.4821 23.9708 0
      vertex 20.4821 23.9708 -2
      vertex 22.2723 23.2919 -2
    endloop
  endfacet
  facet normal 0.120537 -0.992709 0
    outer loop
      vertex 18.5816 23.7401 0
      vertex 20.4821 23.9708 -2
      vertex 20.4821 23.9708 0
    endloop
  endfacet
  facet normal 0.120537 -0.992709 0
    outer loop
      vertex 18.5816 23.7401 0
      vertex 18.5816 23.7401 -2
      vertex 20.4821 23.9708 -2
    endloop
  endfacet
  facet normal -0.748511 0.663123 0
    outer loop
      vertex 23.5418 18.1411 -2
      vertex 22.2723 16.7081 0
      vertex 23.5418 18.1411 0
    endloop
  endfacet
  facet normal -0.748511 0.663123 0
    outer loop
      vertex 23.5418 18.1411 -2
      vertex 22.2723 16.7081 -2
      vertex 22.2723 16.7081 0
    endloop
  endfacet
  facet normal -0.748511 -0.663123 0
    outer loop
      vertex 22.2723 23.2919 -2
      vertex 23.5418 21.8589 -2
      vertex 23.5418 21.8589 0
    endloop
  endfacet
  facet normal -0.748511 -0.663123 -0
    outer loop
      vertex 22.2723 23.2919 0
      vertex 22.2723 23.2919 -2
      vertex 23.5418 21.8589 0
    endloop
  endfacet
  facet normal 0.568065 -0.822984 0
    outer loop
      vertex 17.006 22.6525 0
      vertex 18.5816 23.7401 -2
      vertex 18.5816 23.7401 0
    endloop
  endfacet
  facet normal 0.568065 -0.822984 0
    outer loop
      vertex 17.006 22.6525 0
      vertex 17.006 22.6525 -2
      vertex 18.5816 23.7401 -2
    endloop
  endfacet
  facet normal 1 -0 0
    outer loop
      vertex 16.1162 -20.9573 0
      vertex 16.1162 -19.0427 -2
      vertex 16.1162 -19.0427 0
    endloop
  endfacet
  facet normal 1 0 0
    outer loop
      vertex 16.1162 -20.9573 0
      vertex 16.1162 -20.9573 -2
      vertex 16.1162 -19.0427 -2
    endloop
  endfacet
  facet normal 0.885456 -0.464723 0
    outer loop
      vertex 16.1162 -19.0427 0
      vertex 17.006 -17.3475 -2
      vertex 17.006 -17.3475 0
    endloop
  endfacet
  facet normal 0.885456 -0.464723 0
    outer loop
      vertex 16.1162 -19.0427 0
      vertex 16.1162 -19.0427 -2
      vertex 17.006 -17.3475 -2
    endloop
  endfacet
  facet normal -0.970942 0.239316 0
    outer loop
      vertex 24 -20 -2
      vertex 23.5418 -21.8589 0
      vertex 24 -20 0
    endloop
  endfacet
  facet normal -0.970942 0.239316 0
    outer loop
      vertex 24 -20 -2
      vertex 23.5418 -21.8589 -2
      vertex 23.5418 -21.8589 0
    endloop
  endfacet
  facet normal 0.120537 0.992709 -0
    outer loop
      vertex 20.4821 -23.9708 -2
      vertex 18.5816 -23.7401 0
      vertex 20.4821 -23.9708 0
    endloop
  endfacet
  facet normal 0.120537 0.992709 0
    outer loop
      vertex 20.4821 -23.9708 -2
      vertex 18.5816 -23.7401 -2
      vertex 18.5816 -23.7401 0
    endloop
  endfacet
  facet normal 0.885456 0.464723 -0
    outer loop
      vertex 16.1162 -20.9573 -2
      vertex 16.1162 -20.9573 0
      vertex 17.006 -22.6525 0
    endloop
  endfacet
  facet normal 0.885456 0.464723 -0
    outer loop
      vertex 17.006 -22.6525 -2
      vertex 16.1162 -20.9573 -2
      vertex 17.006 -22.6525 0
    endloop
  endfacet
  facet normal 0.568065 0.822984 -0
    outer loop
      vertex 18.5816 -23.7401 -2
      vertex 17.006 -22.6525 0
      vertex 18.5816 -23.7401 0
    endloop
  endfacet
  facet normal 0.568065 0.822984 0
    outer loop
      vertex 18.5816 -23.7401 -2
      vertex 17.006 -22.6525 -2
      vertex 17.006 -22.6525 0
    endloop
  endfacet
  facet normal -0.354605 0.935016 0
    outer loop
      vertex 22.2723 -23.2919 -2
      vertex 20.4821 -23.9708 0
      vertex 22.2723 -23.2919 0
    endloop
  endfacet
  facet normal -0.354605 0.935016 0
    outer loop
      vertex 22.2723 -23.2919 -2
      vertex 20.4821 -23.9708 -2
      vertex 20.4821 -23.9708 0
    endloop
  endfacet
  facet normal -0.970942 -0.239316 0
    outer loop
      vertex 23.5418 -18.1411 -2
      vertex 24 -20 -2
      vertex 24 -20 0
    endloop
  endfacet
  facet normal -0.970942 -0.239316 -0
    outer loop
      vertex 23.5418 -18.1411 0
      vertex 23.5418 -18.1411 -2
      vertex 24 -20 0
    endloop
  endfacet
  facet normal -0.354605 -0.935016 0
    outer loop
      vertex 20.4821 -16.0292 0
      vertex 22.2723 -16.7081 -2
      vertex 22.2723 -16.7081 0
    endloop
  endfacet
  facet normal -0.354605 -0.935016 -0
    outer loop
      vertex 20.4821 -16.0292 0
      vertex 20.4821 -16.0292 -2
      vertex 22.2723 -16.7081 -2
    endloop
  endfacet
  facet normal 0.120537 -0.992709 0
    outer loop
      vertex 18.5816 -16.2599 0
      vertex 20.4821 -16.0292 -2
      vertex 20.4821 -16.0292 0
    endloop
  endfacet
  facet normal 0.120537 -0.992709 0
    outer loop
      vertex 18.5816 -16.2599 0
      vertex 18.5816 -16.2599 -2
      vertex 20.4821 -16.0292 -2
    endloop
  endfacet
  facet normal -0.748511 0.663123 0
    outer loop
      vertex 23.5418 -21.8589 -2
      vertex 22.2723 -23.2919 0
      vertex 23.5418 -21.8589 0
    endloop
  endfacet
  facet normal -0.748511 0.663123 0
    outer loop
      vertex 23.5418 -21.8589 -2
      vertex 22.2723 -23.2919 -2
      vertex 22.2723 -23.2919 0
    endloop
  endfacet
  facet normal -0.748511 -0.663123 0
    outer loop
      vertex 22.2723 -16.7081 -2
      vertex 23.5418 -18.1411 -2
      vertex 23.5418 -18.1411 0
    endloop
  endfacet
  facet normal -0.748511 -0.663123 -0
    outer loop
      vertex 22.2723 -16.7081 0
      vertex 22.2723 -16.7081 -2
      vertex 23.5418 -18.1411 0
    endloop
  endfacet
  facet normal 0.568065 -0.822984 0
    outer loop
      vertex 17.006 -17.3475 0
      vertex 18.5816 -16.2599 -2
      vertex 18.5816 -16.2599 0
    endloop
  endfacet
  facet normal 0.568065 -0.822984 0
    outer loop
      vertex 17.006 -17.3475 0
      vertex 17.006 -17.3475 -2
      vertex 18.5816 -16.2599 -2
    endloop
  endfacet
  facet normal 1 -0 0
    outer loop
      vertex -23.8838 19.0427 0
      vertex -23.8838 20.9573 -2
      vertex -23.8838 20.9573 0
    endloop
  endfacet
  facet normal 1 0 0
    outer loop
      vertex -23.8838 19.0427 0
      vertex -23.8838 19.0427 -2
      vertex -23.8838 20.9573 -2
    endloop
  endfacet
  facet normal 0.120537 -0.992709 0
    outer loop
      vertex -21.4184 23.7401 0
      vertex -19.5179 23.9708 -2
      vertex -19.5179 23.9708 0
    endloop
  endfacet
  facet normal 0.120537 -0.992709 0
    outer loop
      vertex -21.4184 23.7401 0
      vertex -21.4184 23.7401 -2
      vertex -19.5179 23.9708 -2
    endloop
  endfacet
  facet normal -0.970942 0.239316 0
    outer loop
      vertex -16 20 -2
      vertex -16.4582 18.1411 0
      vertex -16 20 0
    endloop
  endfacet
  facet normal -0.970942 0.239316 0
    outer loop
      vertex -16 20 -2
      vertex -16.4582 18.1411 -2
      vertex -16.4582 18.1411 0
    endloop
  endfacet
  facet normal 0.120537 0.992709 -0
    outer loop
      vertex -19.5179 16.0292 -2
      vertex -21.4184 16.2599 0
      vertex -19.5179 16.0292 0
    endloop
  endfacet
  facet normal 0.120537 0.992709 0
    outer loop
      vertex -19.5179 16.0292 -2
      vertex -21.4184 16.2599 -2
      vertex -21.4184 16.2599 0
    endloop
  endfacet
  facet normal 0.885456 0.464723 -0
    outer loop
      vertex -23.8838 19.0427 -2
      vertex -23.8838 19.0427 0
      vertex -22.994 17.3475 0
    endloop
  endfacet
  facet normal 0.885456 0.464723 -0
    outer loop
      vertex -22.994 17.3475 -2
      vertex -23.8838 19.0427 -2
      vertex -22.994 17.3475 0
    endloop
  endfacet
  facet normal 0.568065 0.822984 -0
    outer loop
      vertex -21.4184 16.2599 -2
      vertex -22.994 17.3475 0
      vertex -21.4184 16.2599 0
    endloop
  endfacet
  facet normal 0.568065 0.822984 0
    outer loop
      vertex -21.4184 16.2599 -2
      vertex -22.994 17.3475 -2
      vertex -22.994 17.3475 0
    endloop
  endfacet
  facet normal -0.970942 -0.239316 0
    outer loop
      vertex -16.4582 21.8589 -2
      vertex -16 20 -2
      vertex -16 20 0
    endloop
  endfacet
  facet normal -0.970942 -0.239316 -0
    outer loop
      vertex -16.4582 21.8589 0
      vertex -16.4582 21.8589 -2
      vertex -16 20 0
    endloop
  endfacet
  facet normal -0.748511 0.663123 0
    outer loop
      vertex -16.4582 18.1411 -2
      vertex -17.7277 16.7081 0
      vertex -16.4582 18.1411 0
    endloop
  endfacet
  facet normal -0.748511 0.663123 0
    outer loop
      vertex -16.4582 18.1411 -2
      vertex -17.7277 16.7081 -2
      vertex -17.7277 16.7081 0
    endloop
  endfacet
  facet normal -0.354605 0.935016 0
    outer loop
      vertex -17.7277 16.7081 -2
      vertex -19.5179 16.0292 0
      vertex -17.7277 16.7081 0
    endloop
  endfacet
  facet normal -0.354605 0.935016 0
    outer loop
      vertex -17.7277 16.7081 -2
      vertex -19.5179 16.0292 -2
      vertex -19.5179 16.0292 0
    endloop
  endfacet
  facet normal -0.354605 -0.935016 0
    outer loop
      vertex -19.5179 23.9708 0
      vertex -17.7277 23.2919 -2
      vertex -17.7277 23.2919 0
    endloop
  endfacet
  facet normal -0.354605 -0.935016 -0
    outer loop
      vertex -19.5179 23.9708 0
      vertex -19.5179 23.9708 -2
      vertex -17.7277 23.2919 -2
    endloop
  endfacet
  facet normal -0.748511 -0.663123 0
    outer loop
      vertex -17.7277 23.2919 -2
      vertex -16.4582 21.8589 -2
      vertex -16.4582 21.8589 0
    endloop
  endfacet
  facet normal -0.748511 -0.663123 -0
    outer loop
      vertex -17.7277 23.2919 0
      vertex -17.7277 23.2919 -2
      vertex -16.4582 21.8589 0
    endloop
  endfacet
  facet normal 0.885456 -0.464723 0
    outer loop
      vertex -23.8838 20.9573 0
      vertex -22.994 22.6525 -2
      vertex -22.994 22.6525 0
    endloop
  endfacet
  facet normal 0.885456 -0.464723 0
    outer loop
      vertex -23.8838 20.9573 0
      vertex -23.8838 20.9573 -2
      vertex -22.994 22.6525 -2
    endloop
  endfacet
  facet normal 0.568065 -0.822984 0
    outer loop
      vertex -22.994 22.6525 0
      vertex -21.4184 23.7401 -2
      vertex -21.4184 23.7401 0
    endloop
  endfacet
  facet normal 0.568065 -0.822984 0
    outer loop
      vertex -22.994 22.6525 0
      vertex -22.994 22.6525 -2
      vertex -21.4184 23.7401 -2
    endloop
  endfacet
  facet normal 1 -0 0
    outer loop
      vertex -23.8838 -20.9573 0
      vertex -23.8838 -19.0427 -2
      vertex -23.8838 -19.0427 0
    endloop
  endfacet
  facet normal 1 0 0
    outer loop
      vertex -23.8838 -20.9573 0
      vertex -23.8838 -20.9573 -2
      vertex -23.8838 -19.0427 -2
    endloop
  endfacet
  facet normal 0.885456 -0.464723 0
    outer loop
      vertex -23.8838 -19.0427 0
      vertex -22.994 -17.3475 -2
      vertex -22.994 -17.3475 0
    endloop
  endfacet
  facet normal 0.885456 -0.464723 0
    outer loop
      vertex -23.8838 -19.0427 0
      vertex -23.8838 -19.0427 -2
      vertex -22.994 -17.3475 -2
    endloop
  endfacet
  facet normal -0.970942 0.239316 0
    outer loop
      vertex -16 -20 -2
      vertex -16.4582 -21.8589 0
      vertex -16 -20 0
    endloop
  endfacet
  facet normal -0.970942 0.239316 0
    outer loop
      vertex -16 -20 -2
      vertex -16.4582 -21.8589 -2
      vertex -16.4582 -21.8589 0
    endloop
  endfacet
  facet normal 0.120537 0.992709 -0
    outer loop
      vertex -19.5179 -23.9708 -2
      vertex -21.4184 -23.7401 0
      vertex -19.5179 -23.9708 0
    endloop
  endfacet
  facet normal 0.120537 0.992709 0
    outer loop
      vertex -19.5179 -23.9708 -2
      vertex -21.4184 -23.7401 -2
      vertex -21.4184 -23.7401 0
    endloop
  endfacet
  facet normal 0.885456 0.464723 -0
    outer loop
      vertex -23.8838 -20.9573 -2
      vertex -23.8838 -20.9573 0
      vertex -22.994 -22.6525 0
    endloop
  endfacet
  facet normal 0.885456 0.464723 -0
    outer loop
      vertex -22.994 -22.6525 -2
      vertex -23.8838 -20.9573 -2
      vertex -22.994 -22.6525 0
    endloop
  endfacet
  facet normal 0.568065 0.822984 -0
    outer loop
      vertex -21.4184 -23.7401 -2
      vertex -22.994 -22.6525 0
      vertex -21.4184 -23.7401 0
    endloop
  endfacet
  facet normal 0.568065 0.822984 0
    outer loop
      vertex -21.4184 -23.7401 -2
      vertex -22.994 -22.6525 -2
      vertex -22.994 -22.6525 0
    endloop
  endfacet
  facet normal -0.354605 0.935016 0
    outer loop
      vertex -17.7277 -23.2919 -2
      vertex -19.5179 -23.9708 0
      vertex -17.7277 -23.2919 0
    endloop
  endfacet
  facet normal -0.354605 0.935016 0
    outer loop
      vertex -17.7277 -23.2919 -2
      vertex -19.5179 -23.9708 -2
      vertex -19.5179 -23.9708 0
    endloop
  endfacet
  facet normal -0.970942 -0.239316 0
    outer loop
      vertex -16.4582 -18.1411 -2
      vertex -16 -20 -2
      vertex -16 -20 0
    endloop
  endfacet
  facet normal -0.970942 -0.239316 -0
    outer loop
      vertex -16.4582 -18.1411 0
      vertex -16.4582 -18.1411 -2
      vertex -16 -20 0
    endloop
  endfacet
  facet normal -0.354605 -0.935016 0
    outer loop
      vertex -19.5179 -16.0292 0
      vertex -17.7277 -16.7081 -2
      vertex -17.7277 -16.7081 0
    endloop
  endfacet
  facet normal -0.354605 -0.935016 -0
    outer loop
      vertex -19.5179 -16.0292 0
      vertex -19.5179 -16.0292 -2
      vertex -17.7277 -16.7081 -2
    endloop
  endfacet
  facet normal 0.120537 -0.992709 0
    outer loop
      vertex -21.4184 -16.2599 0
      vertex -19.5179 -16.0292 -2
      vertex -19.5179 -16.0292 0
    endloop
  endfacet
  facet normal 0.120537 -0.992709 0
    outer loop
      vertex -21.4184 -16.2599 0
      vertex -21.4184 -16.2599 -2
      vertex -19.5179 -16.0292 -2
    endloop
  endfacet
  facet normal -0.748511 0.663123 0
    outer loop
      vertex -16.4582 -21.8589 -2
      vertex -17.7277 -23.2919 0
      vertex -16.4582 -21.8589 0
    endloop
  endfacet
  facet normal -0.748511 0.663123 0
    outer loop
      vertex -16.4582 -21.8589 -2
      vertex -17.7277 -23.2919 -2
      vertex -17.7277 -23.2919 0
    endloop
  endfacet
  facet normal -0.748511 -0.663123 0
    outer loop
      vertex -17.7277 -16.7081 -2
      vertex -16.4582 -18.1411 -2
      vertex -16.4582 -18.1411 0
    endloop
  endfacet
  facet normal -0.748511 -0.663123 -0
    outer loop
      vertex -17.7277 -16.7081 0
      vertex -17.7277 -16.7081 -2
      vertex -16.4582 -18.1411 0
    endloop
  endfacet
  facet normal 0.568065 -0.822984 0
    outer loop
      vertex -22.994 -17.3475 0
      vertex -21.4184 -16.2599 -2
      vertex -21.4184 -16.2599 0
    endloop
  endfacet
  facet normal 0.568065 -0.822984 0
    outer loop
      vertex -22.994 -17.3475 0
      vertex -22.994 -17.3475 -2
      vertex -21.4184 -16.2599 -2
    endloop
  endfacet
  facet normal 0.994522 0.104528 -0
    outer loop
      vertex -49.3 2.79309e-14 50
      vertex -49.3 2.79309e-14 67
      vertex -48.2227 -10.25 67
    endloop
  endfacet
  facet normal 0.994522 0.104528 -0
    outer loop
      vertex -48.2227 -10.25 50
      vertex -49.3 2.79309e-14 50
      vertex -48.2227 -10.25 67
    endloop
  endfacet
  facet normal 0 0 1
    outer loop
      vertex -45.0378 20.0521 50
      vertex -48.2227 10.25 50
      vertex -46.2664 9.83422 50
    endloop
  endfacet
  facet normal 0 0 1
    outer loop
      vertex -48.2227 10.25 50
      vertex -49.3 2.79309e-14 50
      vertex -47.3 2.67978e-14 50
    endloop
  endfacet
  facet normal 0 0 1
    outer loop
      vertex -47.3 2.67978e-14 50
      vertex -49.3 2.79309e-14 50
      vertex -48.2227 -10.25 50
    endloop
  endfacet
  facet normal 0 0 1
    outer loop
      vertex -45.0378 20.0521 50
      vertex -46.2664 9.83422 50
      vertex -43.2107 19.2386 50
    endloop
  endfacet
  facet normal 0 0 1
    outer loop
      vertex -46.2664 9.83422 50
      vertex -48.2227 10.25 50
      vertex -47.3 2.67978e-14 50
    endloop
  endfacet
  facet normal -0 0 1
    outer loop
      vertex -45.0378 20.0521 50
      vertex -43.2107 19.2386 50
      vertex -39.8845 28.9778 50
    endloop
  endfacet
  facet normal 0 0 1
    outer loop
      vertex -24.65 42.6951 50
      vertex -32.9881 36.637 50
      vertex -31.6499 35.1508 50
    endloop
  endfacet
  facet normal 0 0 1
    outer loop
      vertex -43.2107 19.2386 50
      vertex -38.2665 27.8022 50
      vertex -39.8845 28.9778 50
    endloop
  endfacet
  facet normal 0 -0 1
    outer loop
      vertex -38.2665 27.8022 50
      vertex -32.9881 36.637 50
      vertex -39.8845 28.9778 50
    endloop
  endfacet
  facet normal 0 0 1
    outer loop
      vertex -24.65 42.6951 50
      vertex -31.6499 35.1508 50
      vertex -23.65 40.963 50
    endloop
  endfacet
  facet normal 0 0 1
    outer loop
      vertex -31.6499 35.1508 50
      vertex -32.9881 36.637 50
      vertex -38.2665 27.8022 50
    endloop
  endfacet
  facet normal 0 0 1
    outer loop
      vertex -24.65 42.6951 50
      vertex -14.6165 44.985 50
      vertex -15.2345 46.8871 50
    endloop
  endfacet
  facet normal 0 0 1
    outer loop
      vertex 5.15325 49.0299 50
      vertex -5.15325 49.0299 50
      vertex -4.9442 47.0409 50
    endloop
  endfacet
  facet normal 0 -0 1
    outer loop
      vertex -23.65 40.963 50
      vertex -14.6165 44.985 50
      vertex -24.65 42.6951 50
    endloop
  endfacet
  facet normal 0 -0 1
    outer loop
      vertex -14.6165 44.985 50
      vertex -5.15325 49.0299 50
      vertex -15.2345 46.8871 50
    endloop
  endfacet
  facet normal 0 0 1
    outer loop
      vertex 5.15325 49.0299 50
      vertex -4.9442 47.0409 50
      vertex 4.9442 47.0409 50
    endloop
  endfacet
  facet normal 0 0 1
    outer loop
      vertex -4.9442 47.0409 50
      vertex -5.15325 49.0299 50
      vertex -14.6165 44.985 50
    endloop
  endfacet
  facet normal 0 0 1
    outer loop
      vertex 5.15325 49.0299 50
      vertex 4.9442 47.0409 50
      vertex 15.2345 46.8871 50
    endloop
  endfacet
  facet normal 0 0 1
    outer loop
      vertex 32.9881 36.637 50
      vertex 24.65 42.6951 50
      vertex 31.6499 35.1508 50
    endloop
  endfacet
  facet normal 0 0 1
    outer loop
      vertex 4.9442 47.0409 50
      vertex 14.6165 44.985 50
      vertex 15.2345 46.8871 50
    endloop
  endfacet
  facet normal 0 -0 1
    outer loop
      vertex 23.65 40.963 50
      vertex 24.65 42.6951 50
      vertex 15.2345 46.8871 50
    endloop
  endfacet
  facet normal 0 0 1
    outer loop
      vertex 24.65 42.6951 50
      vertex 23.65 40.963 50
      vertex 31.6499 35.1508 50
    endloop
  endfacet
  facet normal 0 0 1
    outer loop
      vertex 23.65 40.963 50
      vertex 15.2345 46.8871 50
      vertex 14.6165 44.985 50
    endloop
  endfacet
  facet normal 0 0 1
    outer loop
      vertex 32.9881 36.637 50
      vertex 31.6499 35.1508 50
      vertex 39.8845 28.9778 50
    endloop
  endfacet
  facet normal 0 0 1
    outer loop
      vertex 48.2227 10.25 50
      vertex 45.0378 20.0521 50
      vertex 46.2664 9.83422 50
    endloop
  endfacet
  facet normal 0 0 1
    outer loop
      vertex 31.6499 35.1508 50
      vertex 38.2665 27.8022 50
      vertex 39.8845 28.9778 50
    endloop
  endfacet
  facet normal -0 0 1
    outer loop
      vertex 38.2665 27.8022 50
      vertex 45.0378 20.0521 50
      vertex 39.8845 28.9778 50
    endloop
  endfacet
  facet normal 0 0 1
    outer loop
      vertex 45.0378 20.0521 50
      vertex 43.2107 19.2386 50
      vertex 46.2664 9.83422 50
    endloop
  endfacet
  facet normal 0 -0 1
    outer loop
      vertex 43.2107 19.2386 50
      vertex 45.0378 20.0521 50
      vertex 38.2665 27.8022 50
    endloop
  endfacet
  facet normal 0 0 1
    outer loop
      vertex 48.2227 10.25 50
      vertex 47.3 0 50
      vertex 49.3 0 50
    endloop
  endfacet
  facet normal 0 0 1
    outer loop
      vertex 45.0378 -20.0521 50
      vertex 48.2227 -10.25 50
      vertex 46.2664 -9.83422 50
    endloop
  endfacet
  facet normal -0 0 1
    outer loop
      vertex 46.2664 9.83422 50
      vertex 47.3 0 50
      vertex 48.2227 10.25 50
    endloop
  endfacet
  facet normal -0 0 1
    outer loop
      vertex 47.3 0 50
      vertex 48.2227 -10.25 50
      vertex 49.3 0 50
    endloop
  endfacet
  facet normal 0 -0 1
    outer loop
      vertex 45.0378 -20.0521 50
      vertex 46.2664 -9.83422 50
      vertex 43.2107 -19.2386 50
    endloop
  endfacet
  facet normal -0 0 1
    outer loop
      vertex 46.2664 -9.83422 50
      vertex 48.2227 -10.25 50
      vertex 47.3 0 50
    endloop
  endfacet
  facet normal 0 0 1
    outer loop
      vertex 45.0378 -20.0521 50
      vertex 43.2107 -19.2386 50
      vertex 39.8845 -28.9778 50
    endloop
  endfacet
  facet normal 0 0 1
    outer loop
      vertex 24.65 -42.6951 50
      vertex 32.9881 -36.637 50
      vertex 31.6499 -35.1508 50
    endloop
  endfacet
  facet normal 0 0 1
    outer loop
      vertex 43.2107 -19.2386 50
      vertex 38.2665 -27.8022 50
      vertex 39.8845 -28.9778 50
    endloop
  endfacet
  facet normal 0 0 1
    outer loop
      vertex 38.2665 -27.8022 50
      vertex 32.9881 -36.637 50
      vertex 39.8845 -28.9778 50
    endloop
  endfacet
  facet normal 0 -0 1
    outer loop
      vertex 24.65 -42.6951 50
      vertex 31.6499 -35.1508 50
      vertex 23.65 -40.963 50
    endloop
  endfacet
  facet normal -0 0 1
    outer loop
      vertex 31.6499 -35.1508 50
      vertex 32.9881 -36.637 50
      vertex 38.2665 -27.8022 50
    endloop
  endfacet
  facet normal 0 0 1
    outer loop
      vertex 24.65 -42.6951 50
      vertex 23.65 -40.963 50
      vertex 15.2345 -46.8871 50
    endloop
  endfacet
  facet normal 0 0 1
    outer loop
      vertex -5.15325 -49.0299 50
      vertex 5.15325 -49.0299 50
      vertex -4.9442 -47.0409 50
    endloop
  endfacet
  facet normal 0 0 1
    outer loop
      vertex 23.65 -40.963 50
      vertex 14.6165 -44.985 50
      vertex 15.2345 -46.8871 50
    endloop
  endfacet
  facet normal 0 0 1
    outer loop
      vertex 14.6165 -44.985 50
      vertex 5.15325 -49.0299 50
      vertex 15.2345 -46.8871 50
    endloop
  endfacet
  facet normal 0 0 1
    outer loop
      vertex 5.15325 -49.0299 50
      vertex 4.9442 -47.0409 50
      vertex -4.9442 -47.0409 50
    endloop
  endfacet
  facet normal -0 0 1
    outer loop
      vertex 4.9442 -47.0409 50
      vertex 5.15325 -49.0299 50
      vertex 14.6165 -44.985 50
    endloop
  endfacet
  facet normal 0 -0 1
    outer loop
      vertex -5.15325 -49.0299 50
      vertex -4.9442 -47.0409 50
      vertex -15.2345 -46.8871 50
    endloop
  endfacet
  facet normal -0 0 1
    outer loop
      vertex -32.9881 -36.637 50
      vertex -24.65 -42.6951 50
      vertex -31.6499 -35.1508 50
    endloop
  endfacet
  facet normal 0 0 1
    outer loop
      vertex -4.9442 -47.0409 50
      vertex -14.6165 -44.985 50
      vertex -15.2345 -46.8871 50
    endloop
  endfacet
  facet normal 0 0 1
    outer loop
      vertex -14.6165 -44.985 50
      vertex -24.65 -42.6951 50
      vertex -15.2345 -46.8871 50
    endloop
  endfacet
  facet normal 0 -0 1
    outer loop
      vertex -24.65 -42.6951 50
      vertex -23.65 -40.963 50
      vertex -31.6499 -35.1508 50
    endloop
  endfacet
  facet normal 0 0 1
    outer loop
      vertex -23.65 -40.963 50
      vertex -24.65 -42.6951 50
      vertex -14.6165 -44.985 50
    endloop
  endfacet
  facet normal 0 -0 1
    outer loop
      vertex -32.9881 -36.637 50
      vertex -31.6499 -35.1508 50
      vertex -39.8845 -28.9778 50
    endloop
  endfacet
  facet normal 0 0 1
    outer loop
      vertex -48.2227 -10.25 50
      vertex -45.0378 -20.0521 50
      vertex -43.2107 -19.2386 50
    endloop
  endfacet
  facet normal 0 0 1
    outer loop
      vertex -31.6499 -35.1508 50
      vertex -38.2665 -27.8022 50
      vertex -39.8845 -28.9778 50
    endloop
  endfacet
  facet normal 0 0 1
    outer loop
      vertex -38.2665 -27.8022 50
      vertex -45.0378 -20.0521 50
      vertex -39.8845 -28.9778 50
    endloop
  endfacet
  facet normal -0 0 1
    outer loop
      vertex -48.2227 -10.25 50
      vertex -43.2107 -19.2386 50
      vertex -46.2664 -9.83422 50
    endloop
  endfacet
  facet normal 0 0 1
    outer loop
      vertex -43.2107 -19.2386 50
      vertex -45.0378 -20.0521 50
      vertex -38.2665 -27.8022 50
    endloop
  endfacet
  facet normal 0 0 1
    outer loop
      vertex -48.2227 -10.25 50
      vertex -46.2664 -9.83422 50
      vertex -47.3 2.67978e-14 50
    endloop
  endfacet
  facet normal -0.207912 0.978148 0
    outer loop
      vertex 15.2345 -46.8871 50
      vertex 5.15325 -49.0299 67
      vertex 15.2345 -46.8871 67
    endloop
  endfacet
  facet normal -0.207912 0.978148 0
    outer loop
      vertex 15.2345 -46.8871 50
      vertex 5.15325 -49.0299 50
      vertex 5.15325 -49.0299 67
    endloop
  endfacet
  facet normal 0.587785 0.809017 -0
    outer loop
      vertex -24.65 -42.6951 50
      vertex -32.9881 -36.637 67
      vertex -24.65 -42.6951 67
    endloop
  endfacet
  facet normal 0.587785 0.809017 0
    outer loop
      vertex -24.65 -42.6951 50
      vertex -32.9881 -36.637 50
      vertex -32.9881 -36.637 67
    endloop
  endfacet
  facet normal 0.866025 0.5 -0
    outer loop
      vertex -45.0378 -20.0521 50
      vertex -45.0378 -20.0521 67
      vertex -39.8845 -28.9778 67
    endloop
  endfacet
  facet normal 0.866025 0.5 -0
    outer loop
      vertex -39.8845 -28.9778 50
      vertex -45.0378 -20.0521 50
      vertex -39.8845 -28.9778 67
    endloop
  endfacet
  facet normal 0.207912 0.978148 -0
    outer loop
      vertex -5.15325 -49.0299 50
      vertex -15.2345 -46.8871 67
      vertex -5.15325 -49.0299 67
    endloop
  endfacet
  facet normal 0.207912 0.978148 0
    outer loop
      vertex -5.15325 -49.0299 50
      vertex -15.2345 -46.8871 50
      vertex -15.2345 -46.8871 67
    endloop
  endfacet
  facet normal 0.951057 0.309017 -0
    outer loop
      vertex -48.2227 -10.25 50
      vertex -48.2227 -10.25 67
      vertex -45.0378 -20.0521 67
    endloop
  endfacet
  facet normal 0.951057 0.309017 -0
    outer loop
      vertex -45.0378 -20.0521 50
      vertex -48.2227 -10.25 50
      vertex -45.0378 -20.0521 67
    endloop
  endfacet
  facet normal -0.587785 0.809017 0
    outer loop
      vertex 32.9881 -36.637 50
      vertex 24.65 -42.6951 67
      vertex 32.9881 -36.637 67
    endloop
  endfacet
  facet normal -0.587785 0.809017 0
    outer loop
      vertex 32.9881 -36.637 50
      vertex 24.65 -42.6951 50
      vertex 24.65 -42.6951 67
    endloop
  endfacet
  facet normal 0 1 -0
    outer loop
      vertex 5.15325 -49.0299 50
      vertex -5.15325 -49.0299 67
      vertex 5.15325 -49.0299 67
    endloop
  endfacet
  facet normal 0 1 0
    outer loop
      vertex 5.15325 -49.0299 50
      vertex -5.15325 -49.0299 50
      vertex -5.15325 -49.0299 67
    endloop
  endfacet
  facet normal -0.743145 -0.669131 0
    outer loop
      vertex 32.9881 36.637 50
      vertex 39.8845 28.9778 50
      vertex 39.8845 28.9778 67
    endloop
  endfacet
  facet normal -0.743145 -0.669131 -0
    outer loop
      vertex 32.9881 36.637 67
      vertex 32.9881 36.637 50
      vertex 39.8845 28.9778 67
    endloop
  endfacet
  facet normal -0.207912 -0.978148 0
    outer loop
      vertex 5.15325 49.0299 67
      vertex 15.2345 46.8871 50
      vertex 15.2345 46.8871 67
    endloop
  endfacet
  facet normal -0.207912 -0.978148 -0
    outer loop
      vertex 5.15325 49.0299 67
      vertex 5.15325 49.0299 50
      vertex 15.2345 46.8871 50
    endloop
  endfacet
  facet normal 0.994522 -0.104528 0
    outer loop
      vertex -49.3 2.79309e-14 67
      vertex -48.2227 10.25 50
      vertex -48.2227 10.25 67
    endloop
  endfacet
  facet normal 0.994522 -0.104528 0
    outer loop
      vertex -49.3 2.79309e-14 67
      vertex -49.3 2.79309e-14 50
      vertex -48.2227 10.25 50
    endloop
  endfacet
  facet normal 0.406737 0.913545 -0
    outer loop
      vertex -15.2345 -46.8871 50
      vertex -24.65 -42.6951 67
      vertex -15.2345 -46.8871 67
    endloop
  endfacet
  facet normal 0.406737 0.913545 0
    outer loop
      vertex -15.2345 -46.8871 50
      vertex -24.65 -42.6951 50
      vertex -24.65 -42.6951 67
    endloop
  endfacet
  facet normal 0.743145 0.669131 -0
    outer loop
      vertex -39.8845 -28.9778 50
      vertex -39.8845 -28.9778 67
      vertex -32.9881 -36.637 67
    endloop
  endfacet
  facet normal 0.743145 0.669131 -0
    outer loop
      vertex -32.9881 -36.637 50
      vertex -39.8845 -28.9778 50
      vertex -32.9881 -36.637 67
    endloop
  endfacet
  facet normal -0.866025 -0.5 0
    outer loop
      vertex 39.8845 28.9778 50
      vertex 45.0378 20.0521 50
      vertex 45.0378 20.0521 67
    endloop
  endfacet
  facet normal -0.866025 -0.5 -0
    outer loop
      vertex 39.8845 28.9778 67
      vertex 39.8845 28.9778 50
      vertex 45.0378 20.0521 67
    endloop
  endfacet
  facet normal -0.994522 -0.104528 0
    outer loop
      vertex 48.2227 10.25 50
      vertex 49.3 0 50
      vertex 49.3 0 67
    endloop
  endfacet
  facet normal -0.994522 -0.104528 -0
    outer loop
      vertex 48.2227 10.25 67
      vertex 48.2227 10.25 50
      vertex 49.3 0 67
    endloop
  endfacet
  facet normal -0.406737 0.913545 0
    outer loop
      vertex 24.65 -42.6951 50
      vertex 15.2345 -46.8871 67
      vertex 24.65 -42.6951 67
    endloop
  endfacet
  facet normal -0.406737 0.913545 0
    outer loop
      vertex 24.65 -42.6951 50
      vertex 15.2345 -46.8871 50
      vertex 15.2345 -46.8871 67
    endloop
  endfacet
  facet normal -0.743145 0.669131 0
    outer loop
      vertex 39.8845 -28.9778 50
      vertex 32.9881 -36.637 67
      vertex 39.8845 -28.9778 67
    endloop
  endfacet
  facet normal -0.743145 0.669131 0
    outer loop
      vertex 39.8845 -28.9778 50
      vertex 32.9881 -36.637 50
      vertex 32.9881 -36.637 67
    endloop
  endfacet
  facet normal -0.951057 0.309017 0
    outer loop
      vertex 48.2227 -10.25 50
      vertex 45.0378 -20.0521 67
      vertex 48.2227 -10.25 67
    endloop
  endfacet
  facet normal -0.951057 0.309017 0
    outer loop
      vertex 48.2227 -10.25 50
      vertex 45.0378 -20.0521 50
      vertex 45.0378 -20.0521 67
    endloop
  endfacet
  facet normal -0.587785 -0.809017 0
    outer loop
      vertex 24.65 42.6951 67
      vertex 32.9881 36.637 50
      vertex 32.9881 36.637 67
    endloop
  endfacet
  facet normal -0.587785 -0.809017 -0
    outer loop
      vertex 24.65 42.6951 67
      vertex 24.65 42.6951 50
      vertex 32.9881 36.637 50
    endloop
  endfacet
  facet normal -0.406737 -0.913545 0
    outer loop
      vertex 15.2345 46.8871 67
      vertex 24.65 42.6951 50
      vertex 24.65 42.6951 67
    endloop
  endfacet
  facet normal -0.406737 -0.913545 -0
    outer loop
      vertex 15.2345 46.8871 67
      vertex 15.2345 46.8871 50
      vertex 24.65 42.6951 50
    endloop
  endfacet
  facet normal 0.406737 -0.913545 0
    outer loop
      vertex -24.65 42.6951 67
      vertex -15.2345 46.8871 50
      vertex -15.2345 46.8871 67
    endloop
  endfacet
  facet normal 0.406737 -0.913545 0
    outer loop
      vertex -24.65 42.6951 67
      vertex -24.65 42.6951 50
      vertex -15.2345 46.8871 50
    endloop
  endfacet
  facet normal 0.587785 -0.809017 0
    outer loop
      vertex -32.9881 36.637 67
      vertex -24.65 42.6951 50
      vertex -24.65 42.6951 67
    endloop
  endfacet
  facet normal 0.587785 -0.809017 0
    outer loop
      vertex -32.9881 36.637 67
      vertex -32.9881 36.637 50
      vertex -24.65 42.6951 50
    endloop
  endfacet
  facet normal 0.866025 -0.5 0
    outer loop
      vertex -45.0378 20.0521 67
      vertex -39.8845 28.9778 50
      vertex -39.8845 28.9778 67
    endloop
  endfacet
  facet normal 0.866025 -0.5 0
    outer loop
      vertex -45.0378 20.0521 67
      vertex -45.0378 20.0521 50
      vertex -39.8845 28.9778 50
    endloop
  endfacet
  facet normal 0.743145 -0.669131 0
    outer loop
      vertex -39.8845 28.9778 67
      vertex -32.9881 36.637 50
      vertex -32.9881 36.637 67
    endloop
  endfacet
  facet normal 0.743145 -0.669131 0
    outer loop
      vertex -39.8845 28.9778 67
      vertex -39.8845 28.9778 50
      vertex -32.9881 36.637 50
    endloop
  endfacet
  facet normal 0.951057 -0.309017 0
    outer loop
      vertex -48.2227 10.25 67
      vertex -45.0378 20.0521 50
      vertex -45.0378 20.0521 67
    endloop
  endfacet
  facet normal 0.951057 -0.309017 0
    outer loop
      vertex -48.2227 10.25 67
      vertex -48.2227 10.25 50
      vertex -45.0378 20.0521 50
    endloop
  endfacet
  facet normal -0.951057 -0.309017 0
    outer loop
      vertex 45.0378 20.0521 50
      vertex 48.2227 10.25 50
      vertex 48.2227 10.25 67
    endloop
  endfacet
  facet normal -0.951057 -0.309017 -0
    outer loop
      vertex 45.0378 20.0521 67
      vertex 45.0378 20.0521 50
      vertex 48.2227 10.25 67
    endloop
  endfacet
  facet normal -0.866025 0.5 0
    outer loop
      vertex 45.0378 -20.0521 50
      vertex 39.8845 -28.9778 67
      vertex 45.0378 -20.0521 67
    endloop
  endfacet
  facet normal -0.866025 0.5 0
    outer loop
      vertex 45.0378 -20.0521 50
      vertex 39.8845 -28.9778 50
      vertex 39.8845 -28.9778 67
    endloop
  endfacet
  facet normal -0.994522 0.104528 0
    outer loop
      vertex 49.3 0 50
      vertex 48.2227 -10.25 67
      vertex 49.3 0 67
    endloop
  endfacet
  facet normal -0.994522 0.104528 0
    outer loop
      vertex 49.3 0 50
      vertex 48.2227 -10.25 50
      vertex 48.2227 -10.25 67
    endloop
  endfacet
  facet normal 0.207912 -0.978148 0
    outer loop
      vertex -15.2345 46.8871 67
      vertex -5.15325 49.0299 50
      vertex -5.15325 49.0299 67
    endloop
  endfacet
  facet normal 0.207912 -0.978148 0
    outer loop
      vertex -15.2345 46.8871 67
      vertex -15.2345 46.8871 50
      vertex -5.15325 49.0299 50
    endloop
  endfacet
  facet normal 0 -1 0
    outer loop
      vertex -5.15325 49.0299 67
      vertex 5.15325 49.0299 50
      vertex 5.15325 49.0299 67
    endloop
  endfacet
  facet normal 0 -1 0
    outer loop
      vertex -5.15325 49.0299 67
      vertex -5.15325 49.0299 50
      vertex 5.15325 49.0299 50
    endloop
  endfacet
  facet normal 0.994522 0.104528 -0
    outer loop
      vertex -47.3 2.67978e-14 5
      vertex -47.3 2.67978e-14 50
      vertex -46.6431 -6.25 5
    endloop
  endfacet
  facet normal 0.994522 0.104528 -0
    outer loop
      vertex -46.2664 -9.83422 0
      vertex -46.6431 -6.25 5
      vertex -46.2664 -9.83422 50
    endloop
  endfacet
  facet normal 0.994522 0.104528 -0
    outer loop
      vertex -46.6431 -6.25 0
      vertex -46.6431 -6.25 5
      vertex -46.2664 -9.83422 0
    endloop
  endfacet
  facet normal 0.994522 0.104528 3.39321e-17
    outer loop
      vertex -46.6431 -6.25 5
      vertex -47.3 2.67978e-14 50
      vertex -46.2664 -9.83422 50
    endloop
  endfacet
  facet normal -0 -0 1
    outer loop
      vertex -46.2664 -9.83422 0
      vertex -22.994 -17.3475 0
      vertex -46.6431 -6.25 0
    endloop
  endfacet
  facet normal 0 -0 1
    outer loop
      vertex -43.2107 -19.2386 0
      vertex -22.994 -17.3475 0
      vertex -46.2664 -9.83422 0
    endloop
  endfacet
  facet normal 0 -0 1
    outer loop
      vertex -38.2665 -27.8022 0
      vertex -23.8838 -19.0427 0
      vertex -43.2107 -19.2386 0
    endloop
  endfacet
  facet normal -0 0 1
    outer loop
      vertex -23.65 -40.963 0
      vertex -14.6165 -44.985 0
      vertex -19.5179 -23.9708 0
    endloop
  endfacet
  facet normal -0 0 1
    outer loop
      vertex -51.3 2.9064e-14 0
      vertex -46.6431 -6.25 0
      vertex -46.6431 6.25 0
    endloop
  endfacet
  facet normal 0 0 1
    outer loop
      vertex -14.6165 44.985 0
      vertex -19.5179 23.9708 0
      vertex -17.7277 23.2919 0
    endloop
  endfacet
  facet normal 0 0 1
    outer loop
      vertex 38.2665 27.8022 0
      vertex 31.6499 35.1508 0
      vertex 23.5418 21.8589 0
    endloop
  endfacet
  facet normal 0 0 1
    outer loop
      vertex -31.6499 35.1508 0
      vertex -22.994 22.6525 0
      vertex -21.4184 23.7401 0
    endloop
  endfacet
  facet normal 0 0 1
    outer loop
      vertex -4.9442 47.0409 0
      vertex -14.6165 44.985 0
      vertex -17.7277 23.2919 0
    endloop
  endfacet
  facet normal 0 0 1
    outer loop
      vertex -14.6165 44.985 0
      vertex -23.65 40.963 0
      vertex -19.5179 23.9708 0
    endloop
  endfacet
  facet normal 0 0 1
    outer loop
      vertex -22.994 22.6525 0
      vertex -31.6499 35.1508 0
      vertex -38.2665 27.8022 0
    endloop
  endfacet
  facet normal 0 0 1
    outer loop
      vertex -23.8838 20.9573 0
      vertex -38.2665 27.8022 0
      vertex -23.8838 19.0427 0
    endloop
  endfacet
  facet normal 0 0 1
    outer loop
      vertex -51.3 2.9064e-14 0
      vertex -50.6431 -6.25 0
      vertex -46.6431 -6.25 0
    endloop
  endfacet
  facet normal 0 0 1
    outer loop
      vertex -51.3 2.9064e-14 0
      vertex -46.6431 6.25 0
      vertex -50.6431 6.25 0
    endloop
  endfacet
  facet normal 0 0 1
    outer loop
      vertex -21.4184 16.2599 0
      vertex -46.6431 6.25 0
      vertex -46.6431 -6.25 0
    endloop
  endfacet
  facet normal 0 -0 1
    outer loop
      vertex -23.8838 -19.0427 0
      vertex -22.994 -17.3475 0
      vertex -43.2107 -19.2386 0
    endloop
  endfacet
  facet normal 0 0 1
    outer loop
      vertex -17.7277 -16.7081 0
      vertex -17.7277 16.7081 0
      vertex -19.5179 -16.0292 0
    endloop
  endfacet
  facet normal 0 0 1
    outer loop
      vertex -21.4184 -16.2599 0
      vertex -46.6431 -6.25 0
      vertex -22.994 -17.3475 0
    endloop
  endfacet
  facet normal -0 0 1
    outer loop
      vertex -16.4582 -21.8589 0
      vertex 4.9442 -47.0409 0
      vertex 16.1162 -20.9573 0
    endloop
  endfacet
  facet normal 0 0 1
    outer loop
      vertex -16 -20 0
      vertex -16.4582 -21.8589 0
      vertex 16.1162 -20.9573 0
    endloop
  endfacet
  facet normal 0 0 1
    outer loop
      vertex -16.4582 -21.8589 0
      vertex -4.9442 -47.0409 0
      vertex 4.9442 -47.0409 0
    endloop
  endfacet
  facet normal 0 0 1
    outer loop
      vertex -16.4582 -18.1411 0
      vertex -16 -20 0
      vertex 16.1162 -19.0427 0
    endloop
  endfacet
  facet normal 0 0 1
    outer loop
      vertex -17.7277 -23.2919 0
      vertex -14.6165 -44.985 0
      vertex -4.9442 -47.0409 0
    endloop
  endfacet
  facet normal 0 0 1
    outer loop
      vertex -4.9442 -47.0409 0
      vertex -16.4582 -21.8589 0
      vertex -17.7277 -23.2919 0
    endloop
  endfacet
  facet normal 0 -0 1
    outer loop
      vertex -23.65 -40.963 0
      vertex -21.4184 -23.7401 0
      vertex -31.6499 -35.1508 0
    endloop
  endfacet
  facet normal 0 0 1
    outer loop
      vertex -17.7277 -23.2919 0
      vertex -19.5179 -23.9708 0
      vertex -14.6165 -44.985 0
    endloop
  endfacet
  facet normal 0 0 1
    outer loop
      vertex -19.5179 -23.9708 0
      vertex -21.4184 -23.7401 0
      vertex -23.65 -40.963 0
    endloop
  endfacet
  facet normal 0 0 1
    outer loop
      vertex -22.994 -22.6525 0
      vertex -38.2665 -27.8022 0
      vertex -31.6499 -35.1508 0
    endloop
  endfacet
  facet normal 0 0 1
    outer loop
      vertex -21.4184 -23.7401 0
      vertex -22.994 -22.6525 0
      vertex -31.6499 -35.1508 0
    endloop
  endfacet
  facet normal 0 0 1
    outer loop
      vertex -22.994 -22.6525 0
      vertex -23.8838 -20.9573 0
      vertex -38.2665 -27.8022 0
    endloop
  endfacet
  facet normal 0 -0 1
    outer loop
      vertex -23.8838 -20.9573 0
      vertex -23.8838 -19.0427 0
      vertex -38.2665 -27.8022 0
    endloop
  endfacet
  facet normal 0 0 1
    outer loop
      vertex -21.4184 23.7401 0
      vertex -23.65 40.963 0
      vertex -31.6499 35.1508 0
    endloop
  endfacet
  facet normal 0 0 1
    outer loop
      vertex -4.9442 47.0409 0
      vertex -16.4582 21.8589 0
      vertex 4.9442 47.0409 0
    endloop
  endfacet
  facet normal 0 0 1
    outer loop
      vertex -22.994 22.6525 0
      vertex -38.2665 27.8022 0
      vertex -23.8838 20.9573 0
    endloop
  endfacet
  facet normal 0 0 1
    outer loop
      vertex 4.9442 47.0409 0
      vertex 17.006 22.6525 0
      vertex 14.6165 44.985 0
    endloop
  endfacet
  facet normal 0 -0 1
    outer loop
      vertex 18.5816 23.7401 0
      vertex 23.65 40.963 0
      vertex 14.6165 44.985 0
    endloop
  endfacet
  facet normal 0 -0 1
    outer loop
      vertex -21.4184 23.7401 0
      vertex -19.5179 23.9708 0
      vertex -23.65 40.963 0
    endloop
  endfacet
  facet normal 0 -0 1
    outer loop
      vertex 46.2664 -9.83422 0
      vertex 47.3 0 0
      vertex 22.2723 -16.7081 0
    endloop
  endfacet
  facet normal 0 0 1
    outer loop
      vertex -16.4582 21.8589 0
      vertex -16 20 0
      vertex 16.1162 20.9573 0
    endloop
  endfacet
  facet normal -0 0 1
    outer loop
      vertex -17.7277 23.2919 0
      vertex -16.4582 21.8589 0
      vertex -4.9442 47.0409 0
    endloop
  endfacet
  facet normal 0 -0 1
    outer loop
      vertex -17.7277 -16.7081 0
      vertex 17.006 17.3475 0
      vertex -17.7277 16.7081 0
    endloop
  endfacet
  facet normal -0 0 1
    outer loop
      vertex -16.4582 21.8589 0
      vertex 16.1162 20.9573 0
      vertex 4.9442 47.0409 0
    endloop
  endfacet
  facet normal 0 0 1
    outer loop
      vertex 17.006 -17.3475 0
      vertex 18.5816 -16.2599 0
      vertex 18.5816 16.2599 0
    endloop
  endfacet
  facet normal 0 0 1
    outer loop
      vertex -19.5179 -16.0292 0
      vertex -21.4184 16.2599 0
      vertex -21.4184 -16.2599 0
    endloop
  endfacet
  facet normal 0 0 1
    outer loop
      vertex -16.4582 18.1411 0
      vertex -17.7277 16.7081 0
      vertex 17.006 17.3475 0
    endloop
  endfacet
  facet normal -0 0 1
    outer loop
      vertex -46.2664 9.83422 0
      vertex -46.6431 6.25 0
      vertex -22.994 17.3475 0
    endloop
  endfacet
  facet normal 0 0 1
    outer loop
      vertex -17.7277 16.7081 0
      vertex -19.5179 16.0292 0
      vertex -19.5179 -16.0292 0
    endloop
  endfacet
  facet normal 0 0 1
    outer loop
      vertex -21.4184 16.2599 0
      vertex -46.6431 -6.25 0
      vertex -21.4184 -16.2599 0
    endloop
  endfacet
  facet normal 0 0 1
    outer loop
      vertex -19.5179 16.0292 0
      vertex -21.4184 16.2599 0
      vertex -19.5179 -16.0292 0
    endloop
  endfacet
  facet normal 0 0 1
    outer loop
      vertex -22.994 17.3475 0
      vertex -43.2107 19.2386 0
      vertex -46.2664 9.83422 0
    endloop
  endfacet
  facet normal 0 0 1
    outer loop
      vertex -21.4184 16.2599 0
      vertex -22.994 17.3475 0
      vertex -46.6431 6.25 0
    endloop
  endfacet
  facet normal 0 0 1
    outer loop
      vertex -22.994 17.3475 0
      vertex -23.8838 19.0427 0
      vertex -43.2107 19.2386 0
    endloop
  endfacet
  facet normal 0 0 1
    outer loop
      vertex -23.8838 19.0427 0
      vertex -38.2665 27.8022 0
      vertex -43.2107 19.2386 0
    endloop
  endfacet
  facet normal 0 -0 1
    outer loop
      vertex -16.4582 -18.1411 0
      vertex 17.006 -17.3475 0
      vertex -17.7277 -16.7081 0
    endloop
  endfacet
  facet normal 0 0 1
    outer loop
      vertex 17.006 -17.3475 0
      vertex -16.4582 -18.1411 0
      vertex 16.1162 -19.0427 0
    endloop
  endfacet
  facet normal 0 -0 1
    outer loop
      vertex 22.2723 -16.7081 0
      vertex 47.3 0 0
      vertex 22.2723 16.7081 0
    endloop
  endfacet
  facet normal 0 0 1
    outer loop
      vertex 46.2664 -9.83422 0
      vertex 23.5418 -18.1411 0
      vertex 43.2107 -19.2386 0
    endloop
  endfacet
  facet normal 0 -0 1
    outer loop
      vertex 31.6499 -35.1508 0
      vertex 38.2665 -27.8022 0
      vertex 23.5418 -21.8589 0
    endloop
  endfacet
  facet normal -0 0 1
    outer loop
      vertex 20.4821 -16.0292 0
      vertex 22.2723 -16.7081 0
      vertex 22.2723 16.7081 0
    endloop
  endfacet
  facet normal -0 0 1
    outer loop
      vertex 24 -20 0
      vertex 38.2665 -27.8022 0
      vertex 43.2107 -19.2386 0
    endloop
  endfacet
  facet normal 0 0 1
    outer loop
      vertex 43.2107 -19.2386 0
      vertex 23.5418 -18.1411 0
      vertex 24 -20 0
    endloop
  endfacet
  facet normal 0 -0 1
    outer loop
      vertex 23.5418 -18.1411 0
      vertex 46.2664 -9.83422 0
      vertex 22.2723 -16.7081 0
    endloop
  endfacet
  facet normal 0 0 1
    outer loop
      vertex 31.6499 -35.1508 0
      vertex 20.4821 -23.9708 0
      vertex 23.65 -40.963 0
    endloop
  endfacet
  facet normal 0 0 1
    outer loop
      vertex 24 -20 0
      vertex 23.5418 -21.8589 0
      vertex 38.2665 -27.8022 0
    endloop
  endfacet
  facet normal 0 0 1
    outer loop
      vertex 23.5418 -21.8589 0
      vertex 22.2723 -23.2919 0
      vertex 31.6499 -35.1508 0
    endloop
  endfacet
  facet normal 0 0 1
    outer loop
      vertex 18.5816 -23.7401 0
      vertex 14.6165 -44.985 0
      vertex 23.65 -40.963 0
    endloop
  endfacet
  facet normal 0 0 1
    outer loop
      vertex 22.2723 -23.2919 0
      vertex 20.4821 -23.9708 0
      vertex 31.6499 -35.1508 0
    endloop
  endfacet
  facet normal 0 0 1
    outer loop
      vertex 20.4821 -23.9708 0
      vertex 18.5816 -23.7401 0
      vertex 23.65 -40.963 0
    endloop
  endfacet
  facet normal 0 0 1
    outer loop
      vertex 17.006 -22.6525 0
      vertex 4.9442 -47.0409 0
      vertex 14.6165 -44.985 0
    endloop
  endfacet
  facet normal 0 0 1
    outer loop
      vertex 17.006 -22.6525 0
      vertex 14.6165 -44.985 0
      vertex 18.5816 -23.7401 0
    endloop
  endfacet
  facet normal 0 0 1
    outer loop
      vertex 17.006 -22.6525 0
      vertex 16.1162 -20.9573 0
      vertex 4.9442 -47.0409 0
    endloop
  endfacet
  facet normal 0 -0 1
    outer loop
      vertex 16.1162 -20.9573 0
      vertex 16.1162 -19.0427 0
      vertex -16 -20 0
    endloop
  endfacet
  facet normal -0 0 1
    outer loop
      vertex -17.7277 -16.7081 0
      vertex 17.006 -17.3475 0
      vertex 17.006 17.3475 0
    endloop
  endfacet
  facet normal 0 -0 1
    outer loop
      vertex 16.1162 20.9573 0
      vertex 17.006 22.6525 0
      vertex 4.9442 47.0409 0
    endloop
  endfacet
  facet normal 0 0 1
    outer loop
      vertex 20.4821 23.9708 0
      vertex 31.6499 35.1508 0
      vertex 23.65 40.963 0
    endloop
  endfacet
  facet normal 0 0 1
    outer loop
      vertex 23.65 40.963 0
      vertex 18.5816 23.7401 0
      vertex 20.4821 23.9708 0
    endloop
  endfacet
  facet normal 0 0 1
    outer loop
      vertex 18.5816 23.7401 0
      vertex 14.6165 44.985 0
      vertex 17.006 22.6525 0
    endloop
  endfacet
  facet normal 0 0 1
    outer loop
      vertex 38.2665 27.8022 0
      vertex 24 20 0
      vertex 43.2107 19.2386 0
    endloop
  endfacet
  facet normal 0 0 1
    outer loop
      vertex 47.3 0 0
      vertex 46.2664 9.83422 0
      vertex 22.2723 16.7081 0
    endloop
  endfacet
  facet normal -0 0 1
    outer loop
      vertex 20.4821 23.9708 0
      vertex 22.2723 23.2919 0
      vertex 31.6499 35.1508 0
    endloop
  endfacet
  facet normal -0 0 1
    outer loop
      vertex 23.5418 18.1411 0
      vertex 46.2664 9.83422 0
      vertex 43.2107 19.2386 0
    endloop
  endfacet
  facet normal 0 -0 1
    outer loop
      vertex 23.5418 21.8589 0
      vertex 31.6499 35.1508 0
      vertex 22.2723 23.2919 0
    endloop
  endfacet
  facet normal 0 0 1
    outer loop
      vertex 43.2107 19.2386 0
      vertex 24 20 0
      vertex 23.5418 18.1411 0
    endloop
  endfacet
  facet normal 0 -0 1
    outer loop
      vertex 24 20 0
      vertex 38.2665 27.8022 0
      vertex 23.5418 21.8589 0
    endloop
  endfacet
  facet normal 0 0 1
    outer loop
      vertex 20.4821 -16.0292 0
      vertex 18.5816 16.2599 0
      vertex 18.5816 -16.2599 0
    endloop
  endfacet
  facet normal -0 0 1
    outer loop
      vertex 22.2723 16.7081 0
      vertex 46.2664 9.83422 0
      vertex 23.5418 18.1411 0
    endloop
  endfacet
  facet normal -0 0 1
    outer loop
      vertex 20.4821 16.0292 0
      vertex 20.4821 -16.0292 0
      vertex 22.2723 16.7081 0
    endloop
  endfacet
  facet normal 0 0 1
    outer loop
      vertex 20.4821 16.0292 0
      vertex 18.5816 16.2599 0
      vertex 20.4821 -16.0292 0
    endloop
  endfacet
  facet normal 0 0 1
    outer loop
      vertex 18.5816 16.2599 0
      vertex 17.006 17.3475 0
      vertex 17.006 -17.3475 0
    endloop
  endfacet
  facet normal 0 0 1
    outer loop
      vertex 16.1162 19.0427 0
      vertex -16 20 0
      vertex -16.4582 18.1411 0
    endloop
  endfacet
  facet normal 0 0 1
    outer loop
      vertex 17.006 17.3475 0
      vertex 16.1162 19.0427 0
      vertex -16.4582 18.1411 0
    endloop
  endfacet
  facet normal 0 -0 1
    outer loop
      vertex 16.1162 19.0427 0
      vertex 16.1162 20.9573 0
      vertex -16 20 0
    endloop
  endfacet
  facet normal -0.207912 0.978148 0
    outer loop
      vertex 14.6165 -44.985 0
      vertex 4.9442 -47.0409 50
      vertex 14.6165 -44.985 50
    endloop
  endfacet
  facet normal -0.207912 0.978148 0
    outer loop
      vertex 14.6165 -44.985 0
      vertex 4.9442 -47.0409 0
      vertex 4.9442 -47.0409 50
    endloop
  endfacet
  facet normal 0.587785 0.809017 -0
    outer loop
      vertex -23.65 -40.963 0
      vertex -31.6499 -35.1508 50
      vertex -23.65 -40.963 50
    endloop
  endfacet
  facet normal 0.587785 0.809017 0
    outer loop
      vertex -23.65 -40.963 0
      vertex -31.6499 -35.1508 0
      vertex -31.6499 -35.1508 50
    endloop
  endfacet
  facet normal 0.207912 0.978148 -0
    outer loop
      vertex -4.9442 -47.0409 0
      vertex -14.6165 -44.985 50
      vertex -4.9442 -47.0409 50
    endloop
  endfacet
  facet normal 0.207912 0.978148 0
    outer loop
      vertex -4.9442 -47.0409 0
      vertex -14.6165 -44.985 0
      vertex -14.6165 -44.985 50
    endloop
  endfacet
  facet normal 0.951057 0.309017 -0
    outer loop
      vertex -46.2664 -9.83422 0
      vertex -46.2664 -9.83422 50
      vertex -43.2107 -19.2386 50
    endloop
  endfacet
  facet normal 0.951057 0.309017 -0
    outer loop
      vertex -43.2107 -19.2386 0
      vertex -46.2664 -9.83422 0
      vertex -43.2107 -19.2386 50
    endloop
  endfacet
  facet normal -0.406737 0.913545 0
    outer loop
      vertex 23.65 -40.963 0
      vertex 14.6165 -44.985 50
      vertex 23.65 -40.963 50
    endloop
  endfacet
  facet normal -0.406737 0.913545 0
    outer loop
      vertex 23.65 -40.963 0
      vertex 14.6165 -44.985 0
      vertex 14.6165 -44.985 50
    endloop
  endfacet
  facet normal -0.743145 -0.669131 0
    outer loop
      vertex 31.6499 35.1508 0
      vertex 38.2665 27.8022 0
      vertex 38.2665 27.8022 50
    endloop
  endfacet
  facet normal -0.743145 -0.669131 -0
    outer loop
      vertex 31.6499 35.1508 50
      vertex 31.6499 35.1508 0
      vertex 38.2665 27.8022 50
    endloop
  endfacet
  facet normal 7.18562e-16 1 -0
    outer loop
      vertex 4.9442 -47.0409 0
      vertex -4.9442 -47.0409 50
      vertex 4.9442 -47.0409 50
    endloop
  endfacet
  facet normal 7.18562e-16 1 0
    outer loop
      vertex 4.9442 -47.0409 0
      vertex -4.9442 -47.0409 0
      vertex -4.9442 -47.0409 50
    endloop
  endfacet
  facet normal 0.866025 0.5 -0
    outer loop
      vertex -43.2107 -19.2386 0
      vertex -43.2107 -19.2386 50
      vertex -38.2665 -27.8022 50
    endloop
  endfacet
  facet normal 0.866025 0.5 -0
    outer loop
      vertex -38.2665 -27.8022 0
      vertex -43.2107 -19.2386 0
      vertex -38.2665 -27.8022 50
    endloop
  endfacet
  facet normal 0.743145 0.669131 -0
    outer loop
      vertex -38.2665 -27.8022 0
      vertex -38.2665 -27.8022 50
      vertex -31.6499 -35.1508 50
    endloop
  endfacet
  facet normal 0.743145 0.669131 -0
    outer loop
      vertex -31.6499 -35.1508 0
      vertex -38.2665 -27.8022 0
      vertex -31.6499 -35.1508 50
    endloop
  endfacet
  facet normal 0.743145 -0.669131 0
    outer loop
      vertex -38.2665 27.8022 50
      vertex -31.6499 35.1508 0
      vertex -31.6499 35.1508 50
    endloop
  endfacet
  facet normal 0.743145 -0.669131 0
    outer loop
      vertex -38.2665 27.8022 50
      vertex -38.2665 27.8022 0
      vertex -31.6499 35.1508 0
    endloop
  endfacet
  facet normal 0.994522 -0.104528 0
    outer loop
      vertex -46.2664 9.83422 0
      vertex -46.6431 6.25 5
      vertex -46.6431 6.25 0
    endloop
  endfacet
  facet normal 0.994522 -0.104528 0
    outer loop
      vertex -46.2664 9.83422 0
      vertex -46.2664 9.83422 50
      vertex -46.6431 6.25 5
    endloop
  endfacet
  facet normal 0.994522 -0.104528 9.78043e-17
    outer loop
      vertex -46.2664 9.83422 50
      vertex -47.3 2.67978e-14 50
      vertex -46.6431 6.25 5
    endloop
  endfacet
  facet normal 0.994522 -0.104528 0
    outer loop
      vertex -47.3 2.67978e-14 5
      vertex -46.6431 6.25 5
      vertex -47.3 2.67978e-14 50
    endloop
  endfacet
  facet normal -0.866025 0.5 0
    outer loop
      vertex 43.2107 -19.2386 0
      vertex 38.2665 -27.8022 50
      vertex 43.2107 -19.2386 50
    endloop
  endfacet
  facet normal -0.866025 0.5 0
    outer loop
      vertex 43.2107 -19.2386 0
      vertex 38.2665 -27.8022 0
      vertex 38.2665 -27.8022 50
    endloop
  endfacet
  facet normal -0.951057 -0.309017 0
    outer loop
      vertex 43.2107 19.2386 0
      vertex 46.2664 9.83422 0
      vertex 46.2664 9.83422 50
    endloop
  endfacet
  facet normal -0.951057 -0.309017 -0
    outer loop
      vertex 43.2107 19.2386 50
      vertex 43.2107 19.2386 0
      vertex 46.2664 9.83422 50
    endloop
  endfacet
  facet normal -0.994522 -0.104528 0
    outer loop
      vertex 46.2664 9.83422 0
      vertex 47.3 0 0
      vertex 47.3 0 50
    endloop
  endfacet
  facet normal -0.994522 -0.104528 -0
    outer loop
      vertex 46.2664 9.83422 50
      vertex 46.2664 9.83422 0
      vertex 47.3 0 50
    endloop
  endfacet
  facet normal -7.18562e-16 -1 0
    outer loop
      vertex -4.9442 47.0409 50
      vertex 4.9442 47.0409 0
      vertex 4.9442 47.0409 50
    endloop
  endfacet
  facet normal -7.18562e-16 -1 -0
    outer loop
      vertex -4.9442 47.0409 50
      vertex -4.9442 47.0409 0
      vertex 4.9442 47.0409 0
    endloop
  endfacet
  facet normal 0.207912 -0.978148 0
    outer loop
      vertex -14.6165 44.985 50
      vertex -4.9442 47.0409 0
      vertex -4.9442 47.0409 50
    endloop
  endfacet
  facet normal 0.207912 -0.978148 0
    outer loop
      vertex -14.6165 44.985 50
      vertex -14.6165 44.985 0
      vertex -4.9442 47.0409 0
    endloop
  endfacet
  facet normal 0.406737 0.913545 -0
    outer loop
      vertex -14.6165 -44.985 0
      vertex -23.65 -40.963 50
      vertex -14.6165 -44.985 50
    endloop
  endfacet
  facet normal 0.406737 0.913545 0
    outer loop
      vertex -14.6165 -44.985 0
      vertex -23.65 -40.963 0
      vertex -23.65 -40.963 50
    endloop
  endfacet
  facet normal 0.866025 -0.5 0
    outer loop
      vertex -43.2107 19.2386 50
      vertex -38.2665 27.8022 0
      vertex -38.2665 27.8022 50
    endloop
  endfacet
  facet normal 0.866025 -0.5 0
    outer loop
      vertex -43.2107 19.2386 50
      vertex -43.2107 19.2386 0
      vertex -38.2665 27.8022 0
    endloop
  endfacet
  facet normal -0.951057 0.309017 0
    outer loop
      vertex 46.2664 -9.83422 0
      vertex 43.2107 -19.2386 50
      vertex 46.2664 -9.83422 50
    endloop
  endfacet
  facet normal -0.951057 0.309017 0
    outer loop
      vertex 46.2664 -9.83422 0
      vertex 43.2107 -19.2386 0
      vertex 43.2107 -19.2386 50
    endloop
  endfacet
  facet normal -0.994522 0.104528 0
    outer loop
      vertex 47.3 0 0
      vertex 46.2664 -9.83422 50
      vertex 47.3 0 50
    endloop
  endfacet
  facet normal -0.994522 0.104528 0
    outer loop
      vertex 47.3 0 0
      vertex 46.2664 -9.83422 0
      vertex 46.2664 -9.83422 50
    endloop
  endfacet
  facet normal -0.743145 0.669131 0
    outer loop
      vertex 38.2665 -27.8022 0
      vertex 31.6499 -35.1508 50
      vertex 38.2665 -27.8022 50
    endloop
  endfacet
  facet normal -0.743145 0.669131 0
    outer loop
      vertex 38.2665 -27.8022 0
      vertex 31.6499 -35.1508 0
      vertex 31.6499 -35.1508 50
    endloop
  endfacet
  facet normal -0.587785 0.809017 0
    outer loop
      vertex 31.6499 -35.1508 0
      vertex 23.65 -40.963 50
      vertex 31.6499 -35.1508 50
    endloop
  endfacet
  facet normal -0.587785 0.809017 0
    outer loop
      vertex 31.6499 -35.1508 0
      vertex 23.65 -40.963 0
      vertex 23.65 -40.963 50
    endloop
  endfacet
  facet normal -0.866025 -0.5 0
    outer loop
      vertex 38.2665 27.8022 0
      vertex 43.2107 19.2386 0
      vertex 43.2107 19.2386 50
    endloop
  endfacet
  facet normal -0.866025 -0.5 -0
    outer loop
      vertex 38.2665 27.8022 50
      vertex 38.2665 27.8022 0
      vertex 43.2107 19.2386 50
    endloop
  endfacet
  facet normal 0.406737 -0.913545 0
    outer loop
      vertex -23.65 40.963 50
      vertex -14.6165 44.985 0
      vertex -14.6165 44.985 50
    endloop
  endfacet
  facet normal 0.406737 -0.913545 0
    outer loop
      vertex -23.65 40.963 50
      vertex -23.65 40.963 0
      vertex -14.6165 44.985 0
    endloop
  endfacet
  facet normal 0.587785 -0.809017 0
    outer loop
      vertex -31.6499 35.1508 50
      vertex -23.65 40.963 0
      vertex -23.65 40.963 50
    endloop
  endfacet
  facet normal 0.587785 -0.809017 0
    outer loop
      vertex -31.6499 35.1508 50
      vertex -31.6499 35.1508 0
      vertex -23.65 40.963 0
    endloop
  endfacet
  facet normal 0.951057 -0.309017 0
    outer loop
      vertex -46.2664 9.83422 50
      vertex -43.2107 19.2386 0
      vertex -43.2107 19.2386 50
    endloop
  endfacet
  facet normal 0.951057 -0.309017 0
    outer loop
      vertex -46.2664 9.83422 50
      vertex -46.2664 9.83422 0
      vertex -43.2107 19.2386 0
    endloop
  endfacet
  facet normal -0.207912 -0.978148 0
    outer loop
      vertex 4.9442 47.0409 50
      vertex 14.6165 44.985 0
      vertex 14.6165 44.985 50
    endloop
  endfacet
  facet normal -0.207912 -0.978148 -0
    outer loop
      vertex 4.9442 47.0409 50
      vertex 4.9442 47.0409 0
      vertex 14.6165 44.985 0
    endloop
  endfacet
  facet normal -0.406737 -0.913545 0
    outer loop
      vertex 14.6165 44.985 50
      vertex 23.65 40.963 0
      vertex 23.65 40.963 50
    endloop
  endfacet
  facet normal -0.406737 -0.913545 -0
    outer loop
      vertex 14.6165 44.985 50
      vertex 14.6165 44.985 0
      vertex 23.65 40.963 0
    endloop
  endfacet
  facet normal -0.587785 -0.809017 0
    outer loop
      vertex 23.65 40.963 50
      vertex 31.6499 35.1508 0
      vertex 31.6499 35.1508 50
    endloop
  endfacet
  facet normal -0.587785 -0.809017 -0
    outer loop
      vertex 23.65 40.963 50
      vertex 23.65 40.963 0
      vertex 31.6499 35.1508 0
    endloop
  endfacet
  facet normal 0 1 -0
    outer loop
      vertex -46.6431 -6.25 0
      vertex -50.6431 -6.25 5
      vertex -46.6431 -6.25 5
    endloop
  endfacet
  facet normal 0 1 0
    outer loop
      vertex -46.6431 -6.25 0
      vertex -50.6431 -6.25 0
      vertex -50.6431 -6.25 5
    endloop
  endfacet
  facet normal 0 -1 0
    outer loop
      vertex -50.6431 6.25 5
      vertex -46.6431 6.25 0
      vertex -46.6431 6.25 5
    endloop
  endfacet
  facet normal 0 -1 0
    outer loop
      vertex -50.6431 6.25 5
      vertex -50.6431 6.25 0
      vertex -46.6431 6.25 0
    endloop
  endfacet
  facet normal 0 0 -1
    outer loop
      vertex -47.3 2.67978e-14 5
      vertex -50.6431 6.25 5
      vertex -46.6431 6.25 5
    endloop
  endfacet
  facet normal 0 0 -1
    outer loop
      vertex -47.3 2.67978e-14 5
      vertex -51.3 2.9064e-14 5
      vertex -50.6431 6.25 5
    endloop
  endfacet
  facet normal 0 0 -1
    outer loop
      vertex -46.6431 -6.25 5
      vertex -50.6431 -6.25 5
      vertex -47.3 2.67978e-14 5
    endloop
  endfacet
  facet normal 0 0 -1
    outer loop
      vertex -50.6431 -6.25 5
      vertex -51.3 2.9064e-14 5
      vertex -47.3 2.67978e-14 5
    endloop
  endfacet
endsolid OpenSCAD_Model
